<svg xmlns="http://www.w3.org/2000/svg" width="19.369" height="19.369" viewBox="0 0 19.369 19.369"><g transform="translate(-849.669 -268.753)"><path d="M859.359,288.122h-.047a9.683,9.683,0,0,1-8.89-13.428,9.684,9.684,0,0,1,12.676-5.188,9.673,9.673,0,0,1,3.132,2.113,9.509,9.509,0,0,1,1.2,1.473,9.684,9.684,0,0,1-8.07,15.03Zm.03-18.369a8.786,8.786,0,0,0-1.693.16,8.679,8.679,0,0,0-3.137,1.283,8.749,8.749,0,0,0-1.321,1.074,8.887,8.887,0,0,0-1.086,1.312,8.684,8.684,0,0,0-1.323,6.513,8.628,8.628,0,0,0,.487,1.632,8.663,8.663,0,0,0,3.182,3.911,8.684,8.684,0,0,0,4.818,1.484l.043.5v-.5a8.625,8.625,0,0,0,3.283-.647,8.678,8.678,0,0,0,3.912-3.182,8.8,8.8,0,0,0,.809-1.5,8.684,8.684,0,0,0-7.973-12.042Z" fill="#fff"/><path d="M859.362,284.03a.5.5,0,0,1-.5-.5v-10.2a.5.5,0,1,1,1,0v10.2A.5.5,0,0,1,859.362,284.03Z" fill="#fff"/><path d="M864.454,278.939h-10.2a.5.5,0,0,1,0-1h10.2a.5.5,0,0,1,0,1Z" fill="#fff"/></g></svg>