<svg xmlns="http://www.w3.org/2000/svg" width="29.256" height="24.004" viewBox="0 0 29.256 24.004"><g transform="translate(-228.075 -405.748)"><path d="M255.444,429.752H229.962a1.867,1.867,0,0,1-1.887-1.887V413.249h1v14.616a.878.878,0,0,0,.887.887h25.482a.877.877,0,0,0,.886-.887V413.249h1v14.616A1.867,1.867,0,0,1,255.444,429.752Z" fill="#6c5b7b"/><path d="M234.643,411.158a1.821,1.821,0,0,1-1.818-1.819,1.719,1.719,0,0,1,.155-.7.5.5,0,1,1,.918.4.736.736,0,0,0-.073.3.819.819,0,1,0,1.637,0,.736.736,0,0,0-.073-.3.5.5,0,1,1,.918-.4,1.7,1.7,0,0,1,.155.7A1.821,1.821,0,0,1,234.643,411.158Z" fill="#6c5b7b"/><path d="M234.644,409.816a.5.5,0,0,1-.5-.5v-3.068a.5.5,0,1,1,1,0v3.068A.5.5,0,0,1,234.644,409.816Z" fill="#6c5b7b"/><path d="M250.784,411.158a1.821,1.821,0,0,1-1.818-1.819,1.716,1.716,0,0,1,.154-.7.5.5,0,0,1,.919.394.743.743,0,0,0-.073.3.818.818,0,1,0,1.637,0,.749.749,0,0,0-.074-.3.5.5,0,1,1,.92-.392,1.729,1.729,0,0,1,.154.7A1.821,1.821,0,0,1,250.784,411.158Z" fill="#6c5b7b"/><path d="M250.784,409.816a.5.5,0,0,1-.5-.5v-3.068a.5.5,0,0,1,1,0v3.068A.5.5,0,0,1,250.784,409.816Z" fill="#6c5b7b"/><path d="M249.351,407.589H236.076a.5.5,0,0,1,0-1h13.275a.5.5,0,0,1,0,1Z" fill="#6c5b7b"/><path d="M257.331,413.749H228.1v-5.273a1.889,1.889,0,0,1,1.887-1.887h3.205a.5.5,0,1,1,0,1h-3.205a.878.878,0,0,0-.887.887v4.273h27.233v-4.273a.878.878,0,0,0-.887-.887h-3.205a.5.5,0,0,1,0-1h3.205a1.89,1.89,0,0,1,1.887,1.887Z" fill="#6c5b7b"/><path d="M236.6,419.659a.5.5,0,0,1-.5-.5v-2.887a.5.5,0,0,1,1,0v2.887A.5.5,0,0,1,236.6,419.659Z" fill="#6c5b7b"/><path d="M240.669,419.659a.5.5,0,0,1-.5-.5v-2.887a.5.5,0,0,1,1,0v2.887A.5.5,0,0,1,240.669,419.659Z" fill="#6c5b7b"/><path d="M244.76,419.659a.5.5,0,0,1-.5-.5v-2.887a.5.5,0,0,1,1,0v2.887A.5.5,0,0,1,244.76,419.659Z" fill="#6c5b7b"/><path d="M248.829,419.659a.5.5,0,0,1-.5-.5v-2.887a.5.5,0,0,1,1,0v2.887A.5.5,0,0,1,248.829,419.659Z" fill="#6c5b7b"/><path d="M236.6,426.684a.5.5,0,0,1-.5-.5V423.3a.5.5,0,0,1,1,0v2.887A.5.5,0,0,1,236.6,426.684Z" fill="#6c5b7b"/><path d="M240.669,426.684a.5.5,0,0,1-.5-.5V423.3a.5.5,0,0,1,1,0v2.887A.5.5,0,0,1,240.669,426.684Z" fill="#6c5b7b"/><path d="M244.76,426.684a.5.5,0,0,1-.5-.5V423.3a.5.5,0,0,1,1,0v2.887A.5.5,0,0,1,244.76,426.684Z" fill="#6c5b7b"/><path d="M248.829,426.684a.5.5,0,0,1-.5-.5V423.3a.5.5,0,0,1,1,0v2.887A.5.5,0,0,1,248.829,426.684Z" fill="#6c5b7b"/><path d="M251.125,421.751H234.3a.5.5,0,1,1,0-1h16.822a.5.5,0,0,1,0,1Z" fill="#6c5b7b"/><path d="M249.011,410.531a2.152,2.152,0,0,1-.364-1.078H236.758a2.14,2.14,0,0,1-4.273,0h-2.728v2.637h25.869v-2.637h-2.705a2.159,2.159,0,0,1-2.137,2.023,2.132,2.132,0,0,1-1.773-.945" fill="#6c5b7b"/></g></svg>