<svg xmlns="http://www.w3.org/2000/svg" width="30" height="30" viewBox="0 0 30 30"><g transform="translate(-193.766 -76.136)"><path d="M208.766,76.136a15.036,15.036,0,1,1-2.926.289A14.982,14.982,0,0,1,208.766,76.136Z" fill="#d35602" opacity="0.361"/><path d="M208.766,79.136a12.006,12.006,0,1,1-2.341.231A11.943,11.943,0,0,1,208.766,79.136Z" fill="#d35602" opacity="0.361"/><path d="M208.766,83.136a7.989,7.989,0,0,1,4.445,1.349,8,8,0,0,1,2.946,3.59,8,8,0,0,1-.739,7.506,8.009,8.009,0,0,1-5.091,3.4,8.035,8.035,0,0,1-3.121,0,8,8,0,0,1-5.092-3.4,8.055,8.055,0,0,1-.739-1.383,8,8,0,0,1,0-6.123,7.994,7.994,0,0,1,2.947-3.59,7.917,7.917,0,0,1,1.383-.74,8.016,8.016,0,0,1,3.061-.609Z" fill="#d35602"/></g></svg>