<svg xmlns="http://www.w3.org/2000/svg" width="18.771" height="18.771" viewBox="0 0 18.771 18.771"><g transform="translate(-705.837 -955.082)"><path d="M707.392,962.913v-2.346h15.632v2.346Zm15.662,9.386H707.392v-7.832h15.632V972.3Zm.381-13.316h-7.42v-1a1.532,1.532,0,0,0,.792-1.32,1.617,1.617,0,0,0-1.584-1.584,1.565,1.565,0,0,0-1.555,1.554,1.5,1.5,0,0,0,.792,1.32v1.027h-7.45a1.157,1.157,0,0,0-1.173,1.173V972.68a1.216,1.216,0,0,0,1.173,1.173h16.425a1.216,1.216,0,0,0,1.173-1.173V960.185A1.222,1.222,0,0,0,723.435,958.983Z" fill="#6c5b7b"/><path d="M710.148,967.606h.792a.355.355,0,0,0,.381-.382v-.792a.354.354,0,0,0-.381-.381h-.792a.354.354,0,0,0-.381.381v.792A.353.353,0,0,0,710.148,967.606Z" fill="#6c5b7b"/><path d="M713.258,967.606h.791a.355.355,0,0,0,.382-.382v-.792a.355.355,0,0,0-.382-.381h-.791a.355.355,0,0,0-.382.381v.792A.37.37,0,0,0,713.258,967.606Z" fill="#6c5b7b"/><path d="M716.4,967.606h.792a.354.354,0,0,0,.381-.382v-.792a.354.354,0,0,0-.381-.381H716.4a.354.354,0,0,0-.381.381v.792A.369.369,0,0,0,716.4,967.606Z" fill="#6c5b7b"/><path d="M719.534,967.606h.792a.355.355,0,0,0,.381-.382v-.792a.354.354,0,0,0-.381-.381h-.792a.355.355,0,0,0-.382.381v.792A.354.354,0,0,0,719.534,967.606Z" fill="#6c5b7b"/><path d="M710.148,970.715h.792a.355.355,0,0,0,.381-.382v-.791a.355.355,0,0,0-.381-.382h-.792a.354.354,0,0,0-.381.382v.791C709.737,970.568,709.913,970.715,710.148,970.715Z" fill="#6c5b7b"/><rect width="1.555" height="1.554" rx="0.381" transform="translate(712.876 969.16)" fill="#6c5b7b"/><rect width="1.555" height="1.554" rx="0.381" transform="translate(716.015 969.16)" fill="#6c5b7b"/><path d="M719.534,970.715h.792a.355.355,0,0,0,.381-.382v-.791a.355.355,0,0,0-.381-.382h-.792a.355.355,0,0,0-.382.382v.791A.342.342,0,0,0,719.534,970.715Z" fill="#6c5b7b"/></g></svg>