<svg xmlns="http://www.w3.org/2000/svg" width="21.106" height="23.895" viewBox="0 0 21.106 23.895"><g transform="translate(-1109.688 -286.582)"><path d="M1120.25,307.667a10.542,10.542,0,0,1-9.74-14.577,10.419,10.419,0,0,1,.975-1.823,10.541,10.541,0,0,1,14.622-2.909,10.538,10.538,0,0,1,3.883,4.732,10.465,10.465,0,0,1,.6,1.978,10.518,10.518,0,0,1,0,4.113,10.438,10.438,0,0,1-.6,1.978,10.546,10.546,0,0,1-9.74,6.508Zm0-20.086a9.547,9.547,0,0,0-8.817,13.2,9.653,9.653,0,0,0,.882,1.649,9.551,9.551,0,0,0,13.238,2.634,9.688,9.688,0,0,0,1.445-1.187,9.581,9.581,0,0,0,1.186-1.446,9.539,9.539,0,0,0,1.425-3.44,9.51,9.51,0,0,0,0-3.723,9.539,9.539,0,0,0-1.425-3.44,9.547,9.547,0,0,0-7.934-4.242Z" fill="#6c5b7b"/><path d="M1120.251,298.469a1.331,1.331,0,0,1-1.346-1.345,1.347,1.347,0,0,1,1.346-1.345,1.331,1.331,0,0,1,1.345,1.345A1.364,1.364,0,0,1,1120.251,298.469Zm0-1.69a.345.345,0,1,0,0,.69.364.364,0,0,0,.345-.345A.338.338,0,0,0,1120.251,296.779Z" fill="#6c5b7b"/><path d="M1120.251,290.176a.5.5,0,0,1-.5-.5v-1.239a.5.5,0,0,1,1,0v1.239A.5.5,0,0,1,1120.251,290.176Z" fill="#6c5b7b"/><path d="M1112.8,297.624h-1.218a.5.5,0,0,1,0-1h1.218a.5.5,0,0,1,0,1Z" fill="#6c5b7b"/><path d="M1120.251,306.291a.5.5,0,0,1-.5-.5v-1.238a.5.5,0,0,1,1,0v1.238A.5.5,0,0,1,1120.251,306.291Z" fill="#6c5b7b"/><path d="M1128.917,297.624H1127.7a.5.5,0,0,1,0-1h1.219a.5.5,0,0,1,0,1Z" fill="#6c5b7b"/><path d="M1120.251,296.779a.5.5,0,0,1-.5-.5v-3.871a.5.5,0,0,1,1,0v3.871A.5.5,0,0,1,1120.251,296.779Z" fill="#6c5b7b"/><path d="M1124.947,297.624H1121.1a.5.5,0,0,1,0-1h3.851a.5.5,0,0,1,0,1Z" fill="#6c5b7b"/><path d="M1126.559,310.477a.493.493,0,0,1-.389-.187l-1.828-2.279a.5.5,0,1,1,.779-.626l1.828,2.279a.5.5,0,0,1-.39.813Z" fill="#6c5b7b"/><path d="M1113.942,310.477a.5.5,0,0,1-.391-.81l1.808-2.28a.5.5,0,1,1,.783.621l-1.808,2.28A.5.5,0,0,1,1113.942,310.477Z" fill="#6c5b7b"/><path d="M1129.33,310.477h-18.179a1.463,1.463,0,1,1,0-2.926h.334a.5.5,0,0,1,0,1h-.334a.463.463,0,1,0,0,.926h18.179a.463.463,0,1,0,0-.926H1129a.5.5,0,0,1,0-1h.334a1.463,1.463,0,1,1,0,2.926Z" fill="#6c5b7b"/><path d="M1122.825,297.97a2.711,2.711,0,1,1-3.419-3.42v-1.3a3.966,3.966,0,1,0,4.716,4.716h-1.3Z" fill="#ff2c00"/><path d="M1122.334,289.92a.579.579,0,1,1,.578-.578.572.572,0,0,1-.359.527A.489.489,0,0,1,1122.334,289.92Zm-.422-.578a.422.422,0,1,0,.422-.422l.016.492-.016,0v.011l-.219-.449.213.437Z" fill="#6c5b7b"/><path d="M1118.159,289.914h0a.612.612,0,0,1-.5-.309.561.561,0,0,1,.243-.769.606.606,0,0,1,.769.241.586.586,0,0,1-.116.682.544.544,0,0,1-.126.089A.739.739,0,0,1,1118.159,289.914Zm.065-.589-.049.445a.4.4,0,0,0,.172-.038.441.441,0,0,0,.21-.569Z" fill="#6c5b7b"/><path d="M1116.212,290.7a.627.627,0,0,1-.406-.166.644.644,0,0,1-.159-.406.629.629,0,0,1,.176-.407.613.613,0,0,1,.651-.083v0a.445.445,0,0,1,.083.052.383.383,0,0,1,.06.051v0a.537.537,0,0,1,0,.792v0a.6.6,0,0,1-.134.1v0A.633.633,0,0,1,1116.212,290.7Z" fill="#6c5b7b"/><path d="M1114.546,291.992h0a.67.67,0,0,1-.249-.057.484.484,0,0,1-.143-.1.575.575,0,0,1-.019-.8.647.647,0,0,1,.684-.115.525.525,0,0,1,.116.083.7.7,0,0,1,.183.423.573.573,0,0,1-.15.386A.593.593,0,0,1,1114.546,291.992Zm.069-.553.222.308a.433.433,0,0,0,.033-.612l-.279.271.027.031Z" fill="#6c5b7b"/><path d="M1113.275,293.679h0a.6.6,0,0,1-.236-.054.571.571,0,0,1-.291-.773.579.579,0,0,1,1.1.263.5.5,0,0,1-.053.226A.693.693,0,0,1,1113.275,293.679Zm.014-.564-.018.4a.413.413,0,0,0,.373-.217.432.432,0,0,0-.162-.566l-.184.359.054.027Z" fill="#6c5b7b"/><path d="M1112.468,295.619a.578.578,0,0,1,0-1.157.574.574,0,0,1,.551.415.51.51,0,0,1,.028.164A.587.587,0,0,1,1112.468,295.619Zm0-1a.417.417,0,0,0-.421.422h.5l-.473.164a.436.436,0,0,0,.394.257.422.422,0,1,0,0-.843Z" fill="#6c5b7b"/><path d="M1112.46,299.779a.612.612,0,0,1-.5-.308.563.563,0,0,1,.238-.768.6.6,0,0,1,.774.241.68.68,0,0,1,.037.451.556.556,0,0,1-.285.321A.745.745,0,0,1,1112.46,299.779Zm.058-.53.129.348a.437.437,0,0,0,.211-.569l-.338.2.017.005Z" fill="#6c5b7b"/><path d="M1113.264,301.708a.636.636,0,0,1-.408-.166.656.656,0,0,1-.157-.406.628.628,0,0,1,.176-.408.5.5,0,0,1,.116-.081.675.675,0,0,1,.675.094.564.564,0,0,1-.4.967Z" fill="#6c5b7b"/><path d="M1114.546,303.39a.66.66,0,0,1-.258-.061.482.482,0,0,1-.125-.089.663.663,0,0,1-.117-.681.629.629,0,0,1,.9-.148.588.588,0,0,1,.115.671.472.472,0,0,1-.1.139A.692.692,0,0,1,1114.546,303.39Zm.037-.54-.036.393a.437.437,0,0,0,.392-.235l-.354-.177v.005l.026.027Z" fill="#6c5b7b"/><path d="M1116.224,304.685a.6.6,0,0,1-.246-.058.577.577,0,0,1-.282-.769.6.6,0,0,1,.761-.288.58.58,0,0,1,.291.775A.593.593,0,0,1,1116.224,304.685Zm.014-.576-.017.408a.415.415,0,0,0,.372-.216.433.433,0,0,0-.162-.566Zm-.014-.424a.416.416,0,0,0-.371.212.434.434,0,0,0,.161.57l.192-.374Z" fill="#6c5b7b"/><path d="M1118.167,305.485a.578.578,0,1,1,.578-.578A.585.585,0,0,1,1118.167,305.485Zm0-1a.422.422,0,1,0,.422.422A.418.418,0,0,0,1118.167,304.485Z" fill="#6c5b7b"/><path d="M1122.325,305.479a.61.61,0,0,1-.5-.309.676.676,0,0,1,.018-.573.537.537,0,0,1,.23-.2h0a.643.643,0,0,1,.764.245.686.686,0,0,1,.038.446.612.612,0,0,1-.29.327A.754.754,0,0,1,1122.325,305.479Z" fill="#6c5b7b"/><path d="M1124.269,304.655a.636.636,0,0,1-.407-.166.665.665,0,0,1-.084-.679.52.52,0,0,1,.084-.117.564.564,0,0,1,.971.4.635.635,0,0,1-.165.407A.642.642,0,0,1,1124.269,304.655Z" fill="#6c5b7b"/><path d="M1125.944,303.391h0a.654.654,0,0,1-.252-.059.63.63,0,0,1-.315-.419.616.616,0,0,1,.161-.482.675.675,0,0,1,.679-.111.5.5,0,0,1,.122.087.663.663,0,0,1,.111.691.516.516,0,0,1-.083.114A.69.69,0,0,1,1125.944,303.391Z" fill="#6c5b7b"/><path d="M1127.228,301.717h0a.613.613,0,0,1-.109-.012.571.571,0,0,1-.471-.591.511.511,0,0,1,.051-.22.689.689,0,0,1,.525-.344.56.56,0,0,1,.247.058.732.732,0,0,1,.309.344.544.544,0,0,1-.027.424A.594.594,0,0,1,1127.228,301.717Zm.014-.547-.018.38a.419.419,0,0,0,.374-.217l-.342-.167Z" fill="#6c5b7b"/><path d="M1128.033,299.786a.579.579,0,1,1,.578-.578A.587.587,0,0,1,1128.033,299.786Zm0-1a.421.421,0,1,0,.421.422A.418.418,0,0,0,1128.033,298.786Z" fill="#6c5b7b"/><path d="M1128.038,295.608a.691.691,0,0,1-.412-.169.5.5,0,0,1-.1-.139.561.561,0,0,1,.241-.763.643.643,0,0,1,.773.241.578.578,0,0,1,.038.448.617.617,0,0,1-.29.326A.689.689,0,0,1,1128.038,295.608Zm.045-.526.13.349a.438.438,0,0,0,.211-.569l-.339.2.017.006Z" fill="#6c5b7b"/><path d="M1127.224,293.664a.674.674,0,0,1-.409-.176.625.625,0,0,1,.005-.809.564.564,0,0,1,.89.677l0,0a.508.508,0,0,1-.048.076.41.41,0,0,1-.041.05h0A.591.591,0,0,1,1127.224,293.664Z" fill="#6c5b7b"/><path d="M1125.944,291.992h0a.675.675,0,0,1-.249-.057.481.481,0,0,1-.142-.1.59.59,0,0,1-.112-.668.528.528,0,0,1,.1-.143.727.727,0,0,1,.418-.164.534.534,0,0,1,.384.159.671.671,0,0,1,.108.67.517.517,0,0,1-.09.126A.591.591,0,0,1,1125.944,291.992Zm.085-.539.311.151a.413.413,0,0,0-.072-.469l-.274.267Z" fill="#6c5b7b"/><path d="M1124.24,290.726a.5.5,0,0,1-.228-.055.736.736,0,0,1-.31-.356.593.593,0,0,1,.037-.42.662.662,0,0,1,.769-.271.75.75,0,0,1,.3.342.564.564,0,0,1,.026.22A.57.57,0,0,1,1124.24,290.726Zm.034-.542-.016.379a.414.414,0,0,0,.373-.216l-.342-.167Zm-.377-.238.338.169h.005v-.388A.42.42,0,0,0,1123.9,289.946Zm.572-.165-.163.317.349-.084A.394.394,0,0,0,1124.469,289.781Z" fill="#6c5b7b"/></g></svg>