<svg xmlns="http://www.w3.org/2000/svg" width="18.918" height="11.038" viewBox="0 0 18.918 11.038"><g transform="translate(-1002.241 -425.755)"><path d="M1012.718,435.2l-1.033-3.129-1.033,3.158H1003.8c.413-4.427,3.778-7.88,7.88-7.88s7.467,3.453,7.88,7.88h-6.847Zm-1.033-9.445c-5.194,0-9.444,4.575-9.444,10.242a.758.758,0,0,0,.8.8h17.324a.759.759,0,0,0,.8-.8C1021.129,430.33,1016.879,425.755,1011.685,425.755Z" fill="#fff"/><path d="M1011.685,428.117a.759.759,0,0,0-.8.8v.8a.8.8,0,0,0,1.594,0v-.8A.759.759,0,0,0,1011.685,428.117Z" fill="#fff"/><path d="M1016.083,430.418l-.472.473a.733.733,0,0,0,0,1.092.755.755,0,0,0,.56.236.809.809,0,0,0,.561-.236l.472-.473a.733.733,0,0,0,0-1.092A.768.768,0,0,0,1016.083,430.418Z" fill="#fff"/><path d="M1007.347,430.418a.775.775,0,0,0-1.181,1l.473.472a.858.858,0,0,0,.56.236.927.927,0,0,0,.561-.236.822.822,0,0,0,.089-1.092Z" fill="#fff"/></g></svg>