<svg xmlns="http://www.w3.org/2000/svg" width="22.164" height="22.164" viewBox="0 0 22.164 22.164"><g transform="translate(-1173.3 -289.468)"><path d="M1184.382,311.632c-.133,0-.266,0-.4-.008a11.081,11.081,0,0,1-1.373-22.013,10.952,10.952,0,0,1,2.169-.135,11.082,11.082,0,0,1-.4,22.156Zm0-21.164a10.087,10.087,0,0,0-5.3,1.5,10.08,10.08,0,0,0-3.873,4.389,10.024,10.024,0,0,0-.905,3.828,10.041,10.041,0,0,0,.628,3.882,10.051,10.051,0,0,0,2.066,3.347,9.955,9.955,0,0,0,1.481,1.308,10.077,10.077,0,0,0,7.508,1.777,10.074,10.074,0,0,0,5.258-2.572,10.066,10.066,0,0,0,2.579-10.9,9.986,9.986,0,0,0-.868-1.775,10.168,10.168,0,0,0-1.2-1.572,10.083,10.083,0,0,0-7.019-3.207C1184.622,290.47,1184.5,290.468,1184.38,290.468Z" fill="#6c5b7b"/><path d="M1188.559,305.216a.5.5,0,0,1-.354-.146l-8.3-8.3a.5.5,0,0,1,.707-.707l8.3,8.3a.5.5,0,0,1-.353.853Z" fill="#ff1a00"/><path d="M1180.255,305.216a.5.5,0,0,1-.354-.853l8.3-8.3a.5.5,0,0,1,.707.707l-8.3,8.3A.494.494,0,0,1,1180.255,305.216Z" fill="#ff1a00"/></g></svg>