<svg xmlns="http://www.w3.org/2000/svg" width="121.244" height="29.917" viewBox="0 0 121.244 29.917"><g transform="translate(-479.297 -111.623)"><path d="M494.373,141.54a5,5,0,0,1-5-5V126.7a5,5,0,0,1,5-5h10.3a5,5,0,1,1,0,10h-5.3v4.842A5,5,0,0,1,494.373,141.54Z" fill="#fff"/><path d="M494.593,131.464H484.3a5,5,0,0,1,0-10h5.3v-4.841a5,5,0,0,1,10,0v9.841A5,5,0,0,1,494.593,131.464Z" fill="#fff"/><g opacity="0.078"><path d="M487.126,130c-.277.062-2,0-2,0H483.8l-.579-.121-.507-.241-.6-.386-.41-.338-.483-.579-.289-.724-.217-.651v-1.135l.217-.506.1-.459.338-.531.338-.41.41-.313.459-.29.651-.29.579-.193h7.263v-6.973l.169-.483.193-.362.193-.434.217-.266.218-.289h0l.458-.41.434-.193.386-.169h0l.652-.217h1.182l.579.217.362.169.435.193.434.313.41.386.217.362.364.7.186.483v1.871l-2.408,5.1-2,2.486-2.32,2.292Z" fill="#6c5b7b"/></g><path d="M527.9,117.658a9.236,9.236,0,0,1,3.871,3.675,10.957,10.957,0,0,1,1.364,5.535,10.792,10.792,0,0,1-1.364,5.505,9.291,9.291,0,0,1-3.871,3.645,12.507,12.507,0,0,1-5.8,1.29h-7.32v-20.94h7.32A12.507,12.507,0,0,1,527.9,117.658Zm-.855,14.28a6.855,6.855,0,0,0,1.8-5.07,7.016,7.016,0,0,0-1.8-5.116,6.8,6.8,0,0,0-5.1-1.844h-2.97v13.83h2.97A6.9,6.9,0,0,0,527.042,131.938Z" fill="#fff"/><path d="M539.342,136.513a7.669,7.669,0,0,1-3.015-3.015,9.034,9.034,0,0,1-1.1-4.5,8.842,8.842,0,0,1,1.125-4.5,7.829,7.829,0,0,1,3.076-3.016,9.416,9.416,0,0,1,8.7,0,7.827,7.827,0,0,1,3.075,3.016,8.842,8.842,0,0,1,1.125,4.5,8.672,8.672,0,0,1-1.155,4.5,8,8,0,0,1-3.12,3.015,9.073,9.073,0,0,1-4.4,1.065A8.754,8.754,0,0,1,539.342,136.513Zm6.465-3.15a4.033,4.033,0,0,0,1.6-1.665,5.611,5.611,0,0,0,.6-2.7,5,5,0,0,0-1.245-3.645,4.093,4.093,0,0,0-3.045-1.275,4,4,0,0,0-3.015,1.275A5.074,5.074,0,0,0,539.492,129a5.159,5.159,0,0,0,1.185,3.645,3.9,3.9,0,0,0,2.985,1.274A4.368,4.368,0,0,0,545.807,133.363Z" fill="#fff"/><path d="M555.392,124.482a7.511,7.511,0,0,1,2.91-3,8.425,8.425,0,0,1,4.26-1.065,8.2,8.2,0,0,1,5.115,1.545,7.526,7.526,0,0,1,2.715,4.336h-4.531a3.308,3.308,0,0,0-1.215-1.695,3.528,3.528,0,0,0-2.115-.615,3.465,3.465,0,0,0-2.849,1.3,5.775,5.775,0,0,0-1.05,3.706,5.717,5.717,0,0,0,1.05,3.675,3.466,3.466,0,0,0,2.849,1.3,3.186,3.186,0,0,0,3.33-2.28h4.531a7.668,7.668,0,0,1-2.731,4.29,8.042,8.042,0,0,1-5.1,1.59,8.414,8.414,0,0,1-4.26-1.065,7.5,7.5,0,0,1-2.91-3,10.234,10.234,0,0,1,0-9.031Z" fill="#fff"/><path d="M595.2,122.667a4.92,4.92,0,0,0-1.98-2.009,6.028,6.028,0,0,0-2.94-.69,6.429,6.429,0,0,0-3.3.84,5.815,5.815,0,0,0-2.25,2.4,8.473,8.473,0,0,0,.016,7.26,5.841,5.841,0,0,0,2.3,2.4,6.77,6.77,0,0,0,3.42.84,5.932,5.932,0,0,0,3.93-1.275,6.079,6.079,0,0,0,2.009-3.556h-7.2v-3.21h11.34v3.661a9.842,9.842,0,0,1-1.8,4.049,10.164,10.164,0,0,1-3.555,2.986,10.458,10.458,0,0,1-4.875,1.125,11.035,11.035,0,0,1-5.475-1.365,9.925,9.925,0,0,1-3.84-3.795,11.651,11.651,0,0,1,0-11.056,9.909,9.909,0,0,1,3.84-3.81,11.7,11.7,0,0,1,11.6.361,8.81,8.81,0,0,1,3.6,4.844Z" fill="#fff"/></g></svg>