<svg xmlns="http://www.w3.org/2000/svg" width="27.387" height="16.319" viewBox="0 0 27.387 16.319"><g transform="translate(-585.28 -430.109)"><path d="M598.976,446.424a8.155,8.155,0,0,1-3.121-15.69,8.041,8.041,0,0,1,1.532-.463,8.181,8.181,0,0,1,3.18,0,8.077,8.077,0,0,1,1.531.463,8.169,8.169,0,0,1,3.66,3,8.17,8.17,0,0,1,.753,1.409,8.181,8.181,0,0,1,0,6.243,8.161,8.161,0,0,1-7.535,5.034Zm0-15.311A7.161,7.161,0,0,0,595,432.319a7.173,7.173,0,0,0-2.635,3.211,7.282,7.282,0,0,0-.407,1.343,7.183,7.183,0,0,0,0,2.792,7.3,7.3,0,0,0,.407,1.342,7.156,7.156,0,0,0,12.56,1.237,7.158,7.158,0,0,0,0-7.951,7.171,7.171,0,0,0-1.974-1.974,7.36,7.36,0,0,0-1.237-.661,7.171,7.171,0,0,0-2.739-.545Z" fill="#6c5b7b"/><path d="M594.7,440.751a.5.5,0,0,1-.453-.288,5.219,5.219,0,0,1,4.723-7.425,5.251,5.251,0,0,1,3.529,1.38.5.5,0,0,1-.672.74,4.21,4.21,0,0,0-7.069,3.092,4.175,4.175,0,0,0,.395,1.789.5.5,0,0,1-.453.712Z" fill="#6c5b7b"/><path d="M598.974,443.482a5.206,5.206,0,0,1-3.448-1.3.5.5,0,0,1,.662-.75,4.216,4.216,0,0,0,7-3.164,4.558,4.558,0,0,0-.225-1.386.5.5,0,1,1,.951-.307,5.508,5.508,0,0,1,.274,1.693A5.216,5.216,0,0,1,598.974,443.482Z" fill="#6c5b7b"/><path d="M598.807,446.428c-1.232,0-7.877-.363-13.428-7.861a.5.5,0,0,1,0-.594c6.012-8.142,13.3-7.882,13.621-7.858a.5.5,0,0,1,.474.524.489.489,0,0,1-.524.474c-.062,0-6.9-.234-12.543,7.157,5.655,7.391,12.474,7.155,12.544,7.156a.489.489,0,0,1,.523.475.5.5,0,0,1-.476.523C598.974,446.426,598.908,446.428,598.807,446.428Z" fill="#6c5b7b"/><path d="M599.141,446.428c-.1,0-.167,0-.191,0a.5.5,0,0,1-.476-.522.47.47,0,0,1,.522-.476c.086,0,6.912.206,12.546-7.156-5.641-7.39-12.483-7.159-12.544-7.157a.484.484,0,0,1-.524-.474.5.5,0,0,1,.474-.524c.316-.023,7.608-.283,13.622,7.858a.5.5,0,0,1,0,.594C607.017,446.064,600.372,446.428,599.141,446.428Z" fill="#6c5b7b"/><path d="M598.669,436.094a3.487,3.487,0,0,1,1.148.191,3.05,3.05,0,0,1,.973.542,2.49,2.49,0,0,1,.651.811,2.12,2.12,0,0,1,0,1.913,2.5,2.5,0,0,1-.651.811,3.05,3.05,0,0,1-.973.542,3.563,3.563,0,0,1-2.3,0,3.05,3.05,0,0,1-.973-.542,2.5,2.5,0,0,1-.651-.811,2.121,2.121,0,0,1,0-1.913,2.491,2.491,0,0,1,.651-.811,3.05,3.05,0,0,1,.973-.542A3.491,3.491,0,0,1,598.669,436.094Z" fill="#ffc524"/></g></svg>