<svg xmlns="http://www.w3.org/2000/svg" width="20.45" height="18.7" viewBox="0 0 20.45 18.7"><path d="M241.389,293.43l-.024-6.785,2.548-.009.025,6.785Zm-7.645.028-.037-10.194,2.548-.009.037,10.194Zm13.571-.049-1.689.006-.025-7.04a1.471,1.471,0,0,0-1.439-1.429l-3.058.011a1.471,1.471,0,0,0-1.429,1.439l.026,7.04-1.72.007-.039-10.545a1.414,1.414,0,0,0-1.438-1.364l-3.058.011a1.414,1.414,0,0,0-1.429,1.375l.038,10.544-2.548.01-.059-16.152a.86.86,0,0,0-1.72.006l.061,16.821a1.1,1.1,0,0,0,1.023,1.016l3.218-.012,5.957-.022,1.688-.006,5.957-.022,1.689-.006a.844.844,0,1,0-.006-1.688Z" transform="translate(-227.728 -276.465)" fill="#6c5b7b"/></svg>