<svg xmlns="http://www.w3.org/2000/svg" width="19.363" height="26.531" viewBox="0 0 19.363 26.531"><g transform="translate(-664.171 -426.595)"><path d="M680.419,433.63v-5.271H675.17Z" fill="#ffc124"/><path d="M664.67,444.615v5.271h5.271Z" fill="#ffc124"/><path d="M675.7,450.513H664.171V427.859h5.771v1h-4.771v20.653H675.7Z" fill="#6c5b7b"/><path d="M680.92,445.289h-1v-16.43h-4.75v-1h5.75Z" fill="#6c5b7b"/><rect width="8.623" height="1" transform="translate(668.233 434.227)" fill="#6c5b7b"/><rect width="8.623" height="1" transform="translate(668.233 437.199)" fill="#6c5b7b"/><rect width="8.623" height="1" transform="translate(668.233 440.172)" fill="#6c5b7b"/><rect width="8.623" height="1" transform="translate(668.233 443.166)" fill="#6c5b7b"/><path d="M674.726,431.115a.962.962,0,0,1-.961-.855l0-.109a1.118,1.118,0,0,0-2.208.066.991.991,0,0,1-.961.9h-.189a.965.965,0,0,1-.964-.964v-2.7a.859.859,0,0,1,.879-.858h4.512a.87.87,0,0,1,.859.858v2.7A.965.965,0,0,1,674.726,431.115Zm-4.285-3.52v2.556l.121-.065a2.115,2.115,0,0,1,4.129-.322V427.6Z" fill="#6c5b7b"/><path d="M679.281,453.126a4.229,4.229,0,0,1-1.628-.323,4.244,4.244,0,0,1-2.3-2.3,4.256,4.256,0,1,1,3.93,2.625Zm0-7.505a3.253,3.253,0,0,0-1.245,6.258,3.276,3.276,0,0,0,2.489,0,3.253,3.253,0,0,0-1.244-6.258Z" fill="#6c5b7b"/><path d="M679.21,450.921l-1.907-1.694a.5.5,0,0,1,.664-.748l1.13,1,1.863-2.274a.5.5,0,1,1,.773.635Z" fill="#6c5b7b"/></g></svg>