<svg xmlns="http://www.w3.org/2000/svg" width="46" height="46" viewBox="0 0 46 46"><g transform="translate(-645.241 -255.437)"><path d="M668.241,264.437a14,14,0,1,1-2.731.269A13.988,13.988,0,0,1,668.241,264.437Z" fill="#ff2c00"/><path d="M668.241,260.437q.885,0,1.764.087t1.748.259q.867.173,1.713.43t1.663.6q.817.337,1.6.755t1.515.908q.735.492,1.419,1.052t1.309,1.187q.625.624,1.186,1.308t1.052,1.419q.492.735.909,1.515t.755,1.6q.338.817.6,1.663t.429,1.714q.172.867.259,1.747t.087,1.764q0,.885-.087,1.765t-.259,1.747q-.172.867-.429,1.714t-.6,1.663q-.339.816-.755,1.6t-.909,1.515q-.49.735-1.052,1.419t-1.186,1.308q-.625.625-1.309,1.187t-1.419,1.052q-.735.49-1.515.908t-1.6.755q-.816.339-1.663.6t-1.713.43q-.868.172-1.748.259t-1.764.086q-.885,0-1.764-.086t-1.748-.259q-.867-.173-1.713-.43t-1.663-.6q-.818-.337-1.6-.755t-1.515-.908q-.735-.492-1.419-1.052t-1.309-1.187q-.625-.624-1.186-1.308t-1.052-1.419q-.492-.735-.909-1.515t-.755-1.6q-.338-.817-.6-1.663t-.429-1.714q-.172-.867-.259-1.747t-.087-1.765q0-.884.087-1.764t.259-1.747q.173-.867.429-1.714t.6-1.663q.339-.818.755-1.6t.909-1.515q.49-.735,1.052-1.419t1.186-1.308q.625-.625,1.309-1.187t1.419-1.052q.735-.492,1.515-.908t1.6-.755q.816-.339,1.663-.6t1.713-.43q.868-.172,1.748-.259T668.241,260.437Z" fill="#ff2c00" opacity="0.188"/><path d="M668.241,255.437q1.129,0,2.254.111t2.233.331q1.108.221,2.19.549t2.125.76q1.044.432,2.04.965t1.936,1.161q.939.627,1.813,1.344t1.672,1.516q.8.8,1.516,1.672t1.345,1.813q.627.941,1.16,1.936t.965,2.041q.432,1.044.761,2.125t.548,2.189q.22,1.108.331,2.233t.111,2.254q0,1.131-.111,2.255t-.331,2.233q-.221,1.107-.548,2.189t-.761,2.125q-.432,1.044-.965,2.041t-1.16,1.936q-.629.939-1.345,1.812T684.5,294.7q-.8.8-1.672,1.516t-1.813,1.344q-.939.629-1.936,1.161t-2.04.965q-1.044.432-2.125.76t-2.19.549q-1.109.219-2.233.331t-2.254.11q-1.13,0-2.254-.11T663.754,301q-1.109-.221-2.19-.549t-2.125-.76q-1.044-.434-2.04-.965t-1.936-1.161q-.939-.627-1.813-1.344t-1.672-1.516q-.8-.8-1.516-1.673t-1.345-1.812q-.627-.941-1.16-1.936t-.965-2.041q-.432-1.044-.761-2.125t-.548-2.189q-.22-1.108-.331-2.233t-.111-2.255q0-1.13.111-2.254t.331-2.233q.221-1.107.548-2.189t.761-2.125q.432-1.044.965-2.041t1.16-1.936q.629-.939,1.345-1.813t1.516-1.672q.8-.8,1.672-1.516t1.813-1.344q.939-.629,1.936-1.161t2.04-.965q1.044-.432,2.125-.76t2.19-.549q1.108-.221,2.233-.331T668.241,255.437Z" fill="#ff2c00" opacity="0.188"/></g></svg>