<svg xmlns="http://www.w3.org/2000/svg" width="18.182" height="17.896" viewBox="0 0 18.182 17.896"><g transform="translate(-1153.415 -392.802)"><path d="M1158.322,410.7h-4.407a.5.5,0,0,1-.5-.5v-15.47a.5.5,0,0,1,.5-.5h4.407a.5.5,0,0,1,.5.5V410.2A.5.5,0,0,1,1158.322,410.7Zm-3.907-1h3.407v-14.47h-3.407Z" fill="#fff"/><path d="M1156.112,398.321a1.27,1.27,0,1,1,1.269-1.27A1.272,1.272,0,0,1,1156.112,398.321Zm0-1.539a.267.267,0,0,0-.271.269c0,.3.54.3.54,0A.266.266,0,0,0,1156.112,396.782Z" fill="#fff"/><path d="M1157.466,405.438h-2.68a.5.5,0,0,1,0-1h2.68a.5.5,0,0,1,0,1Z" fill="#fff"/><path d="M1157.466,406.92h-2.68a.5.5,0,0,1,0-1h2.68a.5.5,0,0,1,0,1Z" fill="#fff"/><path d="M1155.955,408.559h.313l-.157-.6h-.014Zm.4.285h-.471l-.1.413h-.385l.528-1.882h.371l.527,1.882h-.385Z" fill="#f0eef2"/><path d="M1164.709,409.272H1160.3a.5.5,0,0,1-.5-.5V393.3a.5.5,0,0,1,.5-.5h4.406a.5.5,0,0,1,.5.5v15.47A.5.5,0,0,1,1164.709,409.272Zm-3.906-1h3.406V393.8H1160.8Z" fill="#fff"/><path d="M1162.5,396.9a1.27,1.27,0,1,1,1.27-1.271A1.272,1.272,0,0,1,1162.5,396.9Zm0-1.541a.268.268,0,0,0-.27.27c0,.3.54.3.54,0A.267.267,0,0,0,1162.5,395.355Z" fill="#fff"/><path d="M1163.854,404.011h-2.681a.5.5,0,0,1,0-1h2.681a.5.5,0,0,1,0,1Z" fill="#fff"/><path d="M1163.854,405.494h-2.681a.5.5,0,0,1,0-1h2.681a.5.5,0,0,1,0,1Z" fill="#fff"/><path d="M1162.256,407v.557h.271a.247.247,0,0,0,.186-.072.277.277,0,0,0,.057-.2.342.342,0,0,0-.057-.214.236.236,0,0,0-.171-.072h-.286Zm0-.256h.186a.27.27,0,0,0,.185-.072.238.238,0,0,0,.057-.185.229.229,0,0,0-.271-.257h-.171v.514Zm-.37,1.083v-1.882h.542a.721.721,0,0,1,.456.129.449.449,0,0,1,.171.385.409.409,0,0,1-.228.4.334.334,0,0,1,.228.157.455.455,0,0,1,.071.271.547.547,0,0,1-.157.413.678.678,0,0,1-.442.143h-.641Z" fill="#f0eef2"/><path d="M1171.1,410.7h-4.406a.5.5,0,0,1-.5-.5v-15.47a.5.5,0,0,1,.5-.5h4.406a.5.5,0,0,1,.5.5V410.2A.5.5,0,0,1,1171.1,410.7Zm-3.906-1h3.406v-14.47h-3.406Z" fill="#fff"/><path d="M1168.9,398.322a1.27,1.27,0,0,1-.9-2.168,1.285,1.285,0,0,1,1.8,0,1.27,1.27,0,0,1-.9,2.168Zm0-1.54a.27.27,0,0,0-.271.27.247.247,0,0,0,.079.191.258.258,0,0,0,.382,0,.27.27,0,0,0-.19-.461Z" fill="#fff"/><path d="M1170.227,405.438h-2.666a.5.5,0,0,1,0-1h2.666a.5.5,0,0,1,0,1Z" fill="#fff"/><path d="M1170.227,406.92h-2.666a.5.5,0,0,1,0-1h2.666a.5.5,0,0,1,0,1Z" fill="#fff"/><path d="M1169.529,408.673a.556.556,0,0,1-.157.456.63.63,0,0,1-.456.157.645.645,0,0,1-.485-.185.7.7,0,0,1-.185-.514v-.556a.743.743,0,0,1,.171-.513.644.644,0,0,1,.47-.186.672.672,0,0,1,.471.157.577.577,0,0,1,.157.457v.014h-.343a.429.429,0,0,0-.057-.257.293.293,0,0,0-.214-.071.214.214,0,0,0-.2.1.576.576,0,0,0-.071.3v.556a.51.51,0,0,0,.071.3.25.25,0,0,0,.228.1.282.282,0,0,0,.2-.072.382.382,0,0,0,.057-.257h.342Z" fill="#f0eef2"/></g></svg>