<svg xmlns="http://www.w3.org/2000/svg" width="17.361" height="18.837" viewBox="0 0 17.361 18.837"><path d="M927.03,972.266l-6.7-3.632,1.89-1.092,4.252,2.362a1.223,1.223,0,0,0,.561.147,2.279,2.279,0,0,0,.561-.147l4.1-2.362,1.8,1.092Zm-6.7-7.559,2.126-1.181,4.016,2.215a.775.775,0,0,0,.561.147h.088a.809.809,0,0,0,.561-.236l3.779-2.126,2.038,1.181-6.378,3.632Zm0-4.163,6.791-3.868,6.378,3.868-6.466,3.6Zm14.645,7.145-1.742-1.033,1.653-.945a1.136,1.136,0,0,0,.62-.945,1.081,1.081,0,0,0-.561-.945l-1.978-1.181,1.978-1.092a1.136,1.136,0,0,0,.62-.945,1.081,1.081,0,0,0-.561-.945l-7.351-4.4a.932.932,0,0,0-1.093,0l-7.795,4.34a1.2,1.2,0,0,0-.561.945,1.083,1.083,0,0,0,.561.945l2.038,1.092-2.038,1.181a1.076,1.076,0,0,0,0,1.89l1.8,1.033-1.8,1.034a1.076,1.076,0,0,0,0,1.889l7.707,4.163a1.212,1.212,0,0,0,.561.148,2.284,2.284,0,0,0,.561-.148l7.322-4.163a1.075,1.075,0,0,0,.059-1.919Z" transform="translate(-918.201 -955.082)" fill="#6c5b7b"/></svg>