<svg xmlns="http://www.w3.org/2000/svg" width="27.175" height="24.062" viewBox="0 0 27.175 24.062"><g transform="translate(-459.894 -412.709)"><path d="M473.668,434.375a7.469,7.469,0,0,1-7.46-7.46c0-3.953,6.769-13.259,7.057-13.653l.4-.553.4.553c.288.394,7.057,9.7,7.057,13.653A7.469,7.469,0,0,1,473.668,434.375Zm0-19.958c-1.471,2.087-6.46,9.389-6.46,12.5a6.46,6.46,0,0,0,12.921,0C480.129,423.806,475.14,416.5,473.668,414.417Z" fill="#6c5b7b"/><path d="M466.646,433.667h-6.252a.5.5,0,0,1,0-1h6.252a.5.5,0,0,1,0,1Z" fill="#6c5b7b"/><path d="M484.943,436.771h-21.57a.5.5,0,1,1,0-1h21.57a.5.5,0,0,1,0,1Z" fill="#6c5b7b"/><path d="M482.88,417.641h-3.96a.5.5,0,0,1,0-1h3.96a.5.5,0,0,1,0,1Z" fill="#6c5b7b"/><path d="M486.569,414.057h-9.128a.5.5,0,0,1,0-1h9.128a.5.5,0,0,1,0,1Z" fill="#6c5b7b"/><path d="M477.837,422.58a10.585,10.585,0,0,1-1.855,3.835,8.4,8.4,0,0,1-5.939,3.084,8.971,8.971,0,0,1-1.5-.042,5.712,5.712,0,0,0,10.837-2.521A11.508,11.508,0,0,0,477.837,422.58Z" fill="#6c5b7b"/></g></svg>