<svg xmlns="http://www.w3.org/2000/svg" xmlns:xlink="http://www.w3.org/1999/xlink" width="55" height="55" viewBox="0 0 55 55"><defs><clipPath id="a"><path d="M536.413,286.582a27.515,27.515,0,1,1,.529,5.365A27.461,27.461,0,0,1,536.413,286.582Z" fill="none"/></clipPath><clipPath id="b"><rect width="1366" height="768" transform="translate(-401.587 130.082)" fill="none"/></clipPath><clipPath id="c"><rect width="55" height="55" transform="translate(536.413 259.082)" fill="none"/></clipPath></defs><g transform="translate(-536.413 -259.082)"><path d="M563.913,259.082q1.352,0,2.7.133t2.669.4q1.326.263,2.618.655t2.541.91q1.248.516,2.44,1.154t2.315,1.387q1.123.75,2.167,1.608t2,1.812q.955.955,1.812,2t1.608,2.167q.75,1.124,1.387,2.315t1.154,2.44q.517,1.248.909,2.541t.656,2.617q.264,1.326.4,2.67t.132,2.7q0,1.352-.132,2.7t-.4,2.669q-.264,1.326-.656,2.618t-.909,2.541q-.518,1.248-1.154,2.44t-1.387,2.315q-.751,1.122-1.608,2.167t-1.812,2q-.956.955-2,1.812t-2.167,1.608q-1.124.75-2.315,1.387t-2.44,1.154q-1.248.518-2.541.909t-2.618.656q-1.324.264-2.669.4t-2.7.132q-1.35,0-2.7-.132t-2.67-.4q-1.324-.264-2.617-.656t-2.541-.909q-1.248-.518-2.44-1.154t-2.315-1.387q-1.124-.752-2.167-1.608t-2-1.812q-.956-.956-1.812-2t-1.608-2.167q-.75-1.123-1.387-2.315t-1.154-2.44q-.518-1.248-.909-2.541t-.656-2.618q-.264-1.324-.4-2.669t-.133-2.7q0-1.35.133-2.7t.4-2.67q.264-1.324.656-2.617t.909-2.541q.516-1.249,1.154-2.44t1.387-2.315q.75-1.123,1.608-2.167t1.812-2q.955-.955,2-1.812t2.167-1.608q1.123-.75,2.315-1.387t2.44-1.154q1.248-.518,2.541-.91t2.617-.655q1.326-.264,2.67-.4T563.913,259.082Z" fill="#f6f6f6"/><g clip-path="url(#a)"><g clip-path="url(#b)"><g style="isolation:isolate"><g clip-path="url(#c)"><g clip-path="url(#c)"><path d="M563.913,257.376v12.29l-11.261,19.919H537.01V314.2l26.9,4.872,32.073-2.564s22.052-25.386,21.795-26.924-15.641-21.795-16.923-22.821-11.539-7.693-12.564-7.949-24.381-2.821-24.381-2.821Z" fill="#376498"/></g></g></g></g></g><path d="M563.913,266.082q1.008,0,2.01.1t1.99.3q.987.2,1.951.489t1.894.678q.932.385,1.819.86t1.726,1.034q.837.56,1.616,1.2t1.49,1.351q.712.711,1.351,1.49t1.2,1.616q.559.837,1.034,1.726t.86,1.818q.385.932.678,1.895t.489,1.951q.2.987.295,1.99t.1,2.009q0,1.008-.1,2.01t-.295,1.99q-.2.987-.489,1.951t-.678,1.894q-.386.932-.86,1.819t-1.034,1.726q-.559.837-1.2,1.615t-1.351,1.491q-.712.713-1.49,1.351t-1.616,1.2q-.838.559-1.726,1.035t-1.819.86q-.93.385-1.894.678t-1.951.488q-.988.2-1.99.3t-2.01.1q-1.007,0-2.009-.1t-1.99-.3q-.987-.2-1.951-.488t-1.9-.678q-.93-.385-1.818-.86t-1.726-1.035q-.837-.56-1.616-1.2t-1.49-1.351q-.713-.713-1.351-1.491t-1.2-1.615q-.559-.838-1.034-1.726t-.86-1.819q-.386-.93-.678-1.894t-.489-1.951q-.2-.988-.295-1.99t-.1-2.01q0-1.006.1-2.009t.295-1.99q.2-.988.489-1.951t.678-1.895q.386-.93.86-1.818t1.034-1.726q.56-.837,1.2-1.616t1.351-1.49q.712-.713,1.49-1.351t1.616-1.2q.839-.559,1.726-1.034t1.818-.86q.932-.386,1.9-.678t1.951-.489q.988-.2,1.99-.3T563.913,266.082Z" fill="#ececec"/><path d="M564.242,294.266l-6.7-3.632,1.89-1.092,4.252,2.362a1.211,1.211,0,0,0,.561.148,2.284,2.284,0,0,0,.561-.148l4.1-2.362,1.8,1.092Zm-6.7-7.558,2.126-1.181,4.016,2.214a.771.771,0,0,0,.561.148h.088a.806.806,0,0,0,.561-.237l3.779-2.125,2.038,1.181-6.378,3.631Zm0-4.164,6.791-3.867,6.378,3.867-6.466,3.6Zm14.645,7.146-1.742-1.034,1.653-.945a1.135,1.135,0,0,0,.62-.944,1.08,1.08,0,0,0-.561-.945l-1.978-1.181,1.978-1.093a1.135,1.135,0,0,0,.62-.945,1.079,1.079,0,0,0-.561-.944l-7.351-4.4a.932.932,0,0,0-1.093,0l-7.795,4.341a1.2,1.2,0,0,0-.561.944,1.082,1.082,0,0,0,.561.945l2.038,1.093-2.038,1.181a1.076,1.076,0,0,0,0,1.889l1.8,1.034-1.8,1.033a1.076,1.076,0,0,0,0,1.89l7.707,4.163a1.223,1.223,0,0,0,.561.147,2.28,2.28,0,0,0,.561-.147l7.322-4.163a1.075,1.075,0,0,0,.059-1.919Z" fill="#6c5b7b"/></g></svg>