<svg xmlns="http://www.w3.org/2000/svg" width="28.032" height="24.285" viewBox="0 0 28.032 24.285"><g transform="translate(-736.17 -428.595)"><path d="M742.089,447.453a2.7,2.7,0,0,1-1.917-4.605l3.657-3.659a2.776,2.776,0,0,1,3.818,0,2.7,2.7,0,0,1,0,3.819l-3.658,3.658A2.668,2.668,0,0,1,742.089,447.453Zm3.649-8.051a1.689,1.689,0,0,0-1.2.494l-3.657,3.659a1.7,1.7,0,0,0,0,2.4,1.752,1.752,0,0,0,2.4,0l3.658-3.658a1.7,1.7,0,0,0-1.2-2.9Z" fill="#756583"/><path d="M745.475,444.972a.5.5,0,0,1-.353-.147l-3.11-3.11a.5.5,0,1,1,.707-.707l3.11,3.11a.5.5,0,0,1-.354.854Z" fill="#756583"/><path d="M751.149,444.534a.5.5,0,0,1-.5-.5v-5.848a1.91,1.91,0,0,0-.45-1.233l-2.612-3.159a.5.5,0,1,1,.771-.637l2.608,3.155a2.9,2.9,0,0,1,.683,1.874v5.848A.5.5,0,0,1,751.149,444.534Z" fill="#756583"/><path d="M748.674,452.858h-9.551a2.957,2.957,0,0,1-2.953-2.954V438.163a2.9,2.9,0,0,1,.689-1.879l2.6-3.148a.5.5,0,1,1,.771.636l-2.605,3.155a1.9,1.9,0,0,0-.456,1.236V449.9a1.956,1.956,0,0,0,1.953,1.954h9.551a1.837,1.837,0,0,0,.964-.254.5.5,0,0,1,.527.85A2.849,2.849,0,0,1,748.674,452.858Z" fill="#756583"/><path d="M748.894,433.954h-9.922a2.014,2.014,0,0,1-2.013-2.012v-1.336a2.014,2.014,0,0,1,2.013-2.011h9.922a2.013,2.013,0,0,1,2.011,2.011v1.336A2.013,2.013,0,0,1,748.894,433.954Zm-9.922-4.359a1.013,1.013,0,0,0-1.013,1.011v1.336a1.013,1.013,0,0,0,1.013,1.012h9.922a1.012,1.012,0,0,0,1.011-1.012v-1.336a1.012,1.012,0,0,0-1.011-1.011Z" fill="#756583"/><path d="M741.687,432.508a.5.5,0,0,1-.5-.5v-1.577a.5.5,0,0,1,1,0v1.577A.5.5,0,0,1,741.687,432.508Z" fill="#756583"/><path d="M743.921,432.508a.5.5,0,0,1-.5-.5v-1.577a.5.5,0,0,1,1,0v1.577A.5.5,0,0,1,743.921,432.508Z" fill="#756583"/><path d="M746.155,432.508a.5.5,0,0,1-.5-.5v-1.577a.5.5,0,0,1,1,0v1.577A.5.5,0,0,1,746.155,432.508Z" fill="#756583"/><path d="M755.75,449.594c-3.4,0-5.954-1.2-5.954-2.8,0-.517.271-1.271,1.563-1.935a.5.5,0,1,1,.457.891c-.658.337-1.02.708-1.02,1.044,0,.752,1.885,1.8,4.954,1.8a9.535,9.535,0,0,0,5.179-1.144.5.5,0,0,1,.55.834A10.32,10.32,0,0,1,755.75,449.594Z" fill="#756583"/><path d="M755.75,452.88c-3.4,0-5.954-1.2-5.954-2.8a.5.5,0,0,1,1,0c0,.752,1.885,1.8,4.954,1.8s4.954-1.048,4.954-1.8a.5.5,0,0,1,1,0C761.7,451.9,758.637,452.88,755.75,452.88Z" fill="#756583"/><path d="M761.2,450.58a.5.5,0,0,1-.5-.5v-2.213a.5.5,0,0,1,1,0v2.213A.5.5,0,0,1,761.2,450.58Z" fill="#756583"/><path d="M750.295,450.58a.5.5,0,0,1-.5-.5v-3.308a.5.5,0,0,1,1,0v3.308A.5.5,0,0,1,750.295,450.58Z" fill="#756583"/><path d="M758.247,444.074c-.371,0-.739-.015-1.106-.046s-.723-.076-1.068-.137a10.127,10.127,0,0,1-.992-.223,7.558,7.558,0,0,1-.885-.307,5.335,5.335,0,0,1-.752-.386,3.4,3.4,0,0,1-.593-.47,2.156,2.156,0,0,1-.406-.568,1.522,1.522,0,0,1,0-1.324,2.159,2.159,0,0,1,.406-.569,3.384,3.384,0,0,1,.593-.47,5.294,5.294,0,0,1,.753-.387,7.558,7.558,0,0,1,.885-.307,10.075,10.075,0,0,1,.993-.223c.345-.061.7-.106,1.067-.136a12.982,12.982,0,0,1,2.213,0c.367.03.722.075,1.068.136s.678.135.992.223a7.558,7.558,0,0,1,.885.307,5.332,5.332,0,0,1,.752.386,3.357,3.357,0,0,1,.592.47,2.111,2.111,0,0,1,.407.57,1.513,1.513,0,0,1,0,1.324,2.106,2.106,0,0,1-.405.567,3.336,3.336,0,0,1-.592.47,5.3,5.3,0,0,1-.753.387,7.558,7.558,0,0,1-.885.307q-.471.132-.993.223t-1.067.137C758.987,444.059,758.619,444.074,758.247,444.074Zm0-4.6c-.343,0-.684.013-1.021.043s-.663.069-.979.125a8.673,8.673,0,0,0-.9.2,6.662,6.662,0,0,0-.767.265,4.175,4.175,0,0,0-.606.311,2.33,2.33,0,0,0-.415.325,1.135,1.135,0,0,0-.215.3.521.521,0,0,0,0,.472,1.153,1.153,0,0,0,.215.294,2.4,2.4,0,0,0,.415.325,4.111,4.111,0,0,0,.605.309,6.467,6.467,0,0,0,.767.266,8.706,8.706,0,0,0,.894.2c.318.056.644.1.98.126a12.23,12.23,0,0,0,2.043,0c.336-.029.662-.07.979-.126a8.646,8.646,0,0,0,.894-.2,6.547,6.547,0,0,0,.768-.266,4.076,4.076,0,0,0,.606-.31,2.416,2.416,0,0,0,.415-.325,1.1,1.1,0,0,0,.212-.293.505.505,0,0,0,0-.472,1.088,1.088,0,0,0-.214-.3,2.386,2.386,0,0,0-.415-.325,4.212,4.212,0,0,0-.605-.31,6.745,6.745,0,0,0-.768-.265,8.694,8.694,0,0,0-.893-.2c-.317-.056-.644-.1-.98-.125S758.591,439.474,758.247,439.474Z" fill="#756583"/><path d="M758.247,442.26a6.759,6.759,0,0,1-4.075-.986,6.921,6.921,0,0,1,4.075-.986,6.752,6.752,0,0,1,4.074.986A6.922,6.922,0,0,1,758.247,442.26Z" fill="#ffc524"/><path d="M758.248,447.382c-3.395,0-5.955-1.2-5.955-2.8a.5.5,0,0,1,1,0c0,.752,1.885,1.8,4.955,1.8s4.954-1.048,4.954-1.8a.5.5,0,0,1,1,0C764.2,446.4,761.135,447.382,758.248,447.382Z" fill="#756583"/><path d="M763.7,445.082a.5.5,0,0,1-.5-.5v-3.309a.5.5,0,0,1,1,0v3.309A.5.5,0,0,1,763.7,445.082Z" fill="#756583"/><path d="M752.793,445.082a.5.5,0,0,1-.5-.5v-3.309a.5.5,0,0,1,1,0v3.309A.5.5,0,0,1,752.793,445.082Z" fill="#756583"/></g></svg>