<svg xmlns="http://www.w3.org/2000/svg" width="11.282" height="16.911" viewBox="0 0 11.282 16.911"><g transform="translate(-1178.766 -459.75)"><path d="M1188.621,475.26h-8.455v-12h.713v.212a1.219,1.219,0,0,0,1.189,1.189h4.651a1.219,1.219,0,0,0,1.189-1.189v-.212h.713Zm-6.341-13.4h4.227v1.4h-4.227Zm6.843,0h-1.189v-.212a1.219,1.219,0,0,0-1.189-1.189h-1.612a.716.716,0,0,0-.739-.713.68.68,0,0,0-.714.713h-1.612a1.219,1.219,0,0,0-1.189,1.189v.212h-1.189a.936.936,0,0,0-.924.925v12.894a.959.959,0,0,0,.977.978h9.38a.89.89,0,0,0,.714-.344,1.209,1.209,0,0,0,.211-.634V462.789A.973.973,0,0,0,1189.123,461.864Z" fill="#fff"/></g></svg>