<svg xmlns="http://www.w3.org/2000/svg" xmlns:xlink="http://www.w3.org/1999/xlink" width="18" height="17" viewBox="0 0 18 17"><defs><clipPath id="a"><rect width="18" height="17" transform="translate(1084.257 496.5)" fill="none"/></clipPath></defs><g transform="translate(-1084.257 -496.5)" opacity="0.902" style="isolation:isolate"><g clip-path="url(#a)"><g clip-path="url(#a)"><path d="M1091.545,504.525h.737v.737a.737.737,0,1,0,1.474,0v-.737h.737a.737.737,0,0,0,0-1.474h-.737v-.71a.737.737,0,1,0-1.474,0v.737h-.737a.724.724,0,1,0,0,1.447Z" fill="#fff"/><path d="M1099.324,511.076h-12.665c-.136,0-.218-.137-.218-.3v-4.2l4.012,1.092a9.682,9.682,0,0,0,2.539.355,10.181,10.181,0,0,0,2.538-.355l4.067-1.174v4.231C1099.543,510.939,1099.461,511.076,1099.324,511.076Zm-13.62-9.827a.329.329,0,0,1,.355-.354H1099.9a.329.329,0,0,1,.354.354v3.494c0,.137-.136.3-.218.3-.3.082-.518.082-.737.137l-4.231,1.174a8.561,8.561,0,0,1-4.231,0l-4.176-1.174a4.414,4.414,0,0,0-.573-.137H1086a.322.322,0,0,1-.3-.3Zm5.841-2.538a.7.7,0,0,1,.737-.737h1.447a.7.7,0,0,1,.737.737v.737h-2.921Zm8.353.71h-3.986v-.737a2.155,2.155,0,0,0-2.183-2.184h-1.447a2.156,2.156,0,0,0-2.184,2.184v.737h-4.012a1.811,1.811,0,0,0-1.829,1.828v3.494a1.892,1.892,0,0,0,.737,1.447v4.667a1.689,1.689,0,0,0,1.665,1.665h12.665a1.689,1.689,0,0,0,1.665-1.746v-4.641a1.889,1.889,0,0,0,.737-1.446v-3.521A1.794,1.794,0,0,0,1099.9,499.421Z" fill="#fff"/></g></g></g></svg>