<svg xmlns="http://www.w3.org/2000/svg" width="13.894" height="12.713" viewBox="0 0 13.894 12.713"><g transform="translate(-776.084 -273.34)"><path d="M781.573,283.168a4.265,4.265,0,0,1-3.059-1.28,4.354,4.354,0,0,1-1.28-3.059,4.263,4.263,0,0,1,1.28-3.059,4.392,4.392,0,0,1,3.059-1.28,4.267,4.267,0,0,1,3.059,1.28,4.4,4.4,0,0,1,1.28,3.059,4.371,4.371,0,0,1-4.339,4.339Zm8.157,1.844-3.688-2.994a5.434,5.434,0,1,0-4.448,2.321,5.317,5.317,0,0,0,3.71-1.453l3.753,3.059a.446.446,0,0,0,.347.108.514.514,0,0,0,.456-.238A.556.556,0,0,0,789.73,285.012Z" fill="#fff"/></g></svg>