<svg xmlns="http://www.w3.org/2000/svg" width="20.054" height="19.929" viewBox="0 0 20.054 19.929"><g transform="translate(-1236.714 -453.126)"><path d="M1246.757,460.552a2.57,2.57,0,1,0,2.569,2.57A2.581,2.581,0,0,0,1246.757,460.552Zm0,6.675a4.136,4.136,0,1,1,4.136-4.137A4.133,4.133,0,0,1,1246.757,467.227Z" fill="#fff"/><path d="M1246.757,460.552a2.57,2.57,0,1,0,2.569,2.57A2.581,2.581,0,0,0,1246.757,460.552Zm0,6.675a4.136,4.136,0,1,1,4.136-4.137A4.133,4.133,0,0,1,1246.757,467.227Z" fill="#fff"/><path d="M1246.757,460.552a2.57,2.57,0,1,0,2.569,2.57A2.581,2.581,0,0,0,1246.757,460.552Zm0,6.675a4.136,4.136,0,1,1,4.136-4.137A4.133,4.133,0,0,1,1246.757,467.227Z" fill="#fff"/><path d="M1239.111,464.219m2.851,3.1a1.35,1.35,0,0,1,.815.282,4.769,4.769,0,0,1,.408.344,4.155,4.155,0,0,0,.908.659,1.627,1.627,0,0,1,.94,1.472v1.41a.068.068,0,0,0,.063.063h3.353a.068.068,0,0,0,.063-.063v-1.5a1.555,1.555,0,0,1,.908-1.441,3.823,3.823,0,0,0,.878-.627,4.757,4.757,0,0,1,.407-.345,1.278,1.278,0,0,1,1.441-.125l1.536.877,1.253-2.13-1.441-.784a1.369,1.369,0,0,1-.69-1.41,5.071,5.071,0,0,0,.094-.971,9.067,9.067,0,0,0-.062-.972,1.347,1.347,0,0,1,.658-1.41l1.473-.814-1.285-2.131-1.536.877a1.276,1.276,0,0,1-1.441-.125,5.519,5.519,0,0,1-.439-.376,3.819,3.819,0,0,0-.877-.627,1.623,1.623,0,0,1-.909-1.441v-1.285a.068.068,0,0,0-.062-.063h-3.353a.068.068,0,0,0-.063.063v1.285a1.607,1.607,0,0,1-.909,1.441,5.041,5.041,0,0,0-.908.658,4.69,4.69,0,0,1-.408.314,1.278,1.278,0,0,1-1.441.125l-1.536-.846-1.253,2.131,1.473.814a1.3,1.3,0,0,1,.658,1.41,4.425,4.425,0,0,0-.063.941,9.3,9.3,0,0,0,.063.971,1.331,1.331,0,0,1-.658,1.347l-1.5.846,1.284,2.131,1.536-.877A2.007,2.007,0,0,1,1241.962,467.321Zm6.456,5.734h-3.353a1.638,1.638,0,0,1-1.63-1.629v-1.41c0-.032,0-.032-.031-.032a5.264,5.264,0,0,1-1.254-.877,1.694,1.694,0,0,0-.25-.188l-1.974,1.1a1.032,1.032,0,0,1-1.254-.408l-1.88-3.227a1,1,0,0,1,.408-1.254l1.88-1.034c-.032-.344-.063-.689-.063-1.034a10.089,10.089,0,0,1,.063-1.065l-1.818-1a.885.885,0,0,1-.47-.627,1.152,1.152,0,0,1,.094-.783l1.818-3.1a1.05,1.05,0,0,1,1.5-.314l1.723.972c.063-.063.157-.125.219-.188a6.376,6.376,0,0,1,1.254-.878.03.03,0,0,0,.031-.031v-1.285a1.638,1.638,0,0,1,1.63-1.629h3.353a1.638,1.638,0,0,1,1.629,1.629v1.222c0,.032,0,.032.031.032a5.942,5.942,0,0,1,1.222.846c.094.063.157.157.251.219l1.974-1.1a1.032,1.032,0,0,1,1.254.408l1.911,3.227a1,1,0,0,1-.407,1.254l-1.849,1.034a6.049,6.049,0,0,1,.063,1.1,6.189,6.189,0,0,1-.094,1.065l1.817,1a.891.891,0,0,1,.47.6,1.04,1.04,0,0,1-.094.752l-1.849,3.134a1.064,1.064,0,0,1-1.5.282l-1.723-.972a1.6,1.6,0,0,0-.251.22,5.015,5.015,0,0,1-1.222.846.03.03,0,0,0-.031.031v1.441A1.62,1.62,0,0,1,1248.418,473.055Z" fill="#fff"/></g></svg>