<svg xmlns="http://www.w3.org/2000/svg" xmlns:xlink="http://www.w3.org/1999/xlink" width="18" height="18" viewBox="0 0 18 18"><defs><clipPath id="a"><rect width="18" height="18" transform="translate(1016.178 482.083)" fill="none"/></clipPath></defs><g transform="translate(-1016.178 -482.083)" opacity="0.902" style="isolation:isolate"><g clip-path="url(#a)"><g clip-path="url(#a)"><path d="M1017.618,489.541v-2.175H1032.1v2.175Zm14.515,8.7h-14.515v-7.257H1032.1v7.257Zm.353-12.34h-6.877v-.924a1.417,1.417,0,0,0,.734-1.223,1.5,1.5,0,0,0-1.468-1.467,1.449,1.449,0,0,0-1.44,1.44,1.385,1.385,0,0,0,.734,1.223v.951h-6.9a1.073,1.073,0,0,0-1.087,1.088v11.606a1.128,1.128,0,0,0,1.087,1.087h15.221a1.128,1.128,0,0,0,1.087-1.087V487.013A1.133,1.133,0,0,0,1032.486,485.9Z" fill="#fff"/><path d="M1020.173,493.889h.734a.327.327,0,0,0,.353-.353V492.8a.328.328,0,0,0-.353-.353h-.734a.328.328,0,0,0-.353.353v.734A.328.328,0,0,0,1020.173,493.889Z" fill="#fff"/><path d="M1023.055,493.889h.733a.328.328,0,0,0,.354-.353V492.8a.328.328,0,0,0-.354-.353h-.733a.329.329,0,0,0-.354.353v.734A.343.343,0,0,0,1023.055,493.889Z" fill="#fff"/><path d="M1025.963,493.889h.733a.328.328,0,0,0,.354-.353V492.8a.329.329,0,0,0-.354-.353h-.733a.329.329,0,0,0-.354.353v.734A.343.343,0,0,0,1025.963,493.889Z" fill="#fff"/><path d="M1028.87,493.889h.734a.328.328,0,0,0,.354-.353V492.8a.329.329,0,0,0-.354-.353h-.734a.328.328,0,0,0-.353.353v.734A.328.328,0,0,0,1028.87,493.889Z" fill="#fff"/><path d="M1020.173,496.77h.734a.327.327,0,0,0,.353-.353v-.734a.328.328,0,0,0-.353-.353h-.734a.328.328,0,0,0-.353.353v.734C1019.793,496.635,1019.956,496.77,1020.173,496.77Z" fill="#fff"/><rect width="1.441" height="1.44" rx="0.353" transform="translate(1022.701 495.33)" fill="#fff"/><rect width="1.441" height="1.44" rx="0.353" transform="translate(1025.609 495.33)" fill="#fff"/><path d="M1028.87,496.77h.734a.328.328,0,0,0,.354-.353v-.734a.329.329,0,0,0-.354-.353h-.734a.328.328,0,0,0-.353.353v.734C1028.49,496.635,1028.653,496.77,1028.87,496.77Z" fill="#fff"/></g></g></g></svg>