<svg xmlns="http://www.w3.org/2000/svg" width="22.573" height="22.572" viewBox="0 0 22.573 22.572"><g transform="translate(-1228.298 -485.214)"><path d="M1244.1,495.361h-3.375a6.072,6.072,0,0,0-.956,0h-.183a10.262,10.262,0,1,1-1.139,0h-3.376a1.139,1.139,0,0,0,0,2.278h3.376a4.138,4.138,0,0,1,1.139,0h.183c.675,0-.609-.057.956,0h3.375a1.085,1.085,0,0,0,1.139-1.139A1.108,1.108,0,0,0,1244.1,495.361Z" fill="#fff"/><path d="M1239.585,505.917A9.417,9.417,0,1,1,1249,496.5,9.438,9.438,0,0,1,1239.585,505.917Zm0-20.7a11.286,11.286,0,1,0,11.286,11.286A11.319,11.319,0,0,0,1239.585,485.214Z" fill="#fff"/><path d="M1244.1,495.361h-3.375c-2.475-.017-.215.006-2.278,0h-3.376a1.139,1.139,0,0,0,0,2.278h9.029a1.085,1.085,0,0,0,1.139-1.139A1.108,1.108,0,0,0,1244.1,495.361Z" fill="#fff"/><path d="M1240.72,501.011v-3.375c.018-2.475-.005-.215,0-2.278v-3.376a1.139,1.139,0,1,0-2.278,0v9.029a1.085,1.085,0,0,0,1.139,1.139A1.108,1.108,0,0,0,1240.72,501.011Z" fill="#fff"/></g></svg>