<svg xmlns="http://www.w3.org/2000/svg" width="18.027" height="26.872" viewBox="0 0 18.027 26.872"><g transform="translate(-374.11 -392.312)"><path d="M383.984,394.268v-.085a.871.871,0,0,0-1.742,0l-1,.085a1.893,1.893,0,0,1,1.871-1.956,1.874,1.874,0,0,1,1.871,1.871Z" fill="#6c5b7b"/><path d="M380.2,394.654v2.891a.485.485,0,0,0,.493.493h.192a.506.506,0,0,0,.493-.428v-.065a1.729,1.729,0,0,1,3.427,0v.065a.495.495,0,0,0,.985-.065v-2.891a.384.384,0,0,0-.385-.386h-4.862A.379.379,0,0,0,380.2,394.654Z" fill="#6c5b7b"/><path d="M390.287,419.184H375.959a1.851,1.851,0,0,1-1.849-1.849V396.8a1.851,1.851,0,0,1,1.849-1.848H380.2v1h-4.241a.84.84,0,0,0-.849.848v20.54a.84.84,0,0,0,.849.849h14.328a.84.84,0,0,0,.85-.849V396.8a.84.84,0,0,0-.85-.848h-4.455v-1h4.455a1.851,1.851,0,0,1,1.85,1.848v20.54A1.851,1.851,0,0,1,390.287,419.184Z" fill="#6c5b7b"/><path d="M386.9,417.171H376.1V396.917h3.648v1H377.1v18.254h9.381l2.642-2.641V397.917H386.5v-1h3.627v17.027Z" fill="#6c5b7b"/><path d="M380.039,408.009l-1.136-1.137.707-.707.405.406,1.211-1.294.73.684Z" fill="#6c5b7b"/><rect width="2.635" height="1" transform="translate(378.991 402.29) rotate(-45)" fill="#6c5b7b"/><rect width="1" height="2.635" transform="translate(378.991 401.133) rotate(-45)" fill="#6c5b7b"/><rect width="2.65" height="1" transform="translate(378.988 411.972) rotate(-45.317)" fill="#6c5b7b"/><rect width="1" height="2.65" transform="translate(378.989 410.79) rotate(-44.672)" fill="#6c5b7b"/><rect width="5.439" height="1" transform="translate(382.556 402.143)" fill="#6c5b7b"/><rect width="5.439" height="1" transform="translate(382.556 406.897)" fill="#6c5b7b"/><path d="M386.068,415.971a.5.5,0,0,1-.5-.5v-2.877h2.878a.5.5,0,0,1,0,1h-1.878v1.877A.5.5,0,0,1,386.068,415.971Z" fill="#6c5b7b"/></g></svg>