<svg xmlns="http://www.w3.org/2000/svg" xmlns:xlink="http://www.w3.org/1999/xlink" width="55" height="55" viewBox="0 0 55 55"><defs><clipPath id="a"><path d="M348.6,252.2a27.489,27.489,0,1,1,.528,5.365A27.453,27.453,0,0,1,348.6,252.2Z" fill="none"/></clipPath><clipPath id="b"><rect width="1366" height="768" transform="translate(-367.399 95.697)" fill="none"/></clipPath><clipPath id="c"><rect width="55" height="55" transform="translate(348.601 224.697)" fill="none"/></clipPath></defs><g transform="translate(-348.601 -224.697)"><path d="M376.1,224.7q1.352,0,2.695.132t2.67.4q1.324.264,2.618.656t2.541.909q1.248.518,2.439,1.154t2.315,1.387q1.123.752,2.168,1.608t2,1.812q.956.955,1.813,2t1.607,2.168q.752,1.123,1.388,2.314t1.154,2.44q.516,1.248.909,2.541t.656,2.618q.262,1.324.4,2.669t.132,2.7q0,1.352-.132,2.695t-.4,2.67q-.264,1.324-.656,2.618t-.909,2.541q-.518,1.248-1.154,2.439t-1.388,2.315q-.75,1.123-1.607,2.168t-1.813,2q-.954.955-2,1.813t-2.168,1.607q-1.123.751-2.315,1.388t-2.439,1.154q-1.248.516-2.541.909t-2.618.655q-1.324.264-2.67.4t-2.695.133q-1.352,0-2.7-.133t-2.669-.4q-1.324-.262-2.618-.655t-2.541-.909q-1.248-.518-2.439-1.154t-2.315-1.388q-1.123-.75-2.168-1.607t-2-1.813q-.955-.955-1.813-2t-1.607-2.168q-.752-1.123-1.388-2.315t-1.154-2.439q-.516-1.248-.909-2.541t-.656-2.618q-.262-1.326-.4-2.67T348.6,252.2q0-1.352.132-2.7t.4-2.669q.264-1.324.656-2.618t.909-2.541q.518-1.248,1.154-2.44t1.388-2.314q.75-1.124,1.607-2.168t1.813-2q.954-.954,2-1.812t2.168-1.608q1.123-.75,2.315-1.387t2.439-1.154q1.248-.517,2.541-.909t2.618-.656q1.324-.263,2.669-.4T376.1,224.7Z" fill="#f6f6f6"/><g clip-path="url(#a)"><g clip-path="url(#b)"><g style="isolation:isolate"><g clip-path="url(#c)"><g clip-path="url(#c)"><path d="M376.1,222.991v12.29L364.839,255.2H349.2v24.616l26.9,4.872,32.073-2.564s22.052-25.385,21.795-26.924-15.641-21.795-16.923-22.821-11.539-7.692-12.565-7.949-24.38-2.82-24.38-2.82Z" fill="#f9af25"/></g></g></g></g></g><path d="M376.1,231.7q1.006,0,2.009.1t1.99.295q.988.2,1.952.489t1.894.677q.93.386,1.819.86t1.725,1.035q.837.56,1.616,1.2T390.6,237.7q.711.712,1.351,1.491t1.2,1.616q.56.837,1.034,1.725a20.116,20.116,0,0,1,.86,1.819q.385.93.678,1.894t.489,1.951q.2.988.3,1.99t.1,2.01q0,1.006-.1,2.009t-.3,1.99q-.2.988-.489,1.952t-.678,1.894a20.1,20.1,0,0,1-.86,1.818q-.474.89-1.034,1.726t-1.2,1.616q-.639.779-1.351,1.491t-1.491,1.351q-.778.637-1.616,1.2t-1.725,1.034q-.89.475-1.819.86t-1.894.678q-.965.293-1.952.489t-1.99.295q-1,.1-2.009.1t-2.009-.1q-1-.1-1.99-.295t-1.952-.489q-.963-.293-1.894-.678t-1.819-.86q-.888-.474-1.725-1.034t-1.616-1.2q-.779-.639-1.491-1.351t-1.351-1.491q-.639-.778-1.2-1.616t-1.034-1.726q-.476-.888-.861-1.818t-.677-1.894q-.293-.965-.489-1.952t-.295-1.99q-.1-1-.1-2.009t.1-2.01q.1-1,.295-1.99t.489-1.951q.292-.963.677-1.894t.861-1.819q.474-.888,1.034-1.725t1.2-1.616q.639-.778,1.351-1.491t1.491-1.351q.778-.639,1.616-1.2t1.725-1.035q.888-.474,1.819-.86t1.894-.677q.965-.293,1.952-.489t1.99-.295Q375.094,231.7,376.1,231.7Z" fill="#ececec"/><path d="M368.791,250.528v-2.346h15.633v2.346Zm15.662,9.385H368.791v-7.831h15.633v7.831Zm.382-13.315h-7.421v-1a1.532,1.532,0,0,0,.792-1.32,1.615,1.615,0,0,0-1.584-1.584,1.565,1.565,0,0,0-1.554,1.554,1.493,1.493,0,0,0,.792,1.32V246.6h-7.45a1.157,1.157,0,0,0-1.173,1.173V260.3a1.216,1.216,0,0,0,1.173,1.173h16.425a1.216,1.216,0,0,0,1.173-1.173V247.8A1.222,1.222,0,0,0,384.835,246.6Z" fill="#6c5b7b"/><path d="M371.547,255.221h.792a.355.355,0,0,0,.382-.382v-.792a.355.355,0,0,0-.382-.381h-.792a.354.354,0,0,0-.381.381v.792A.354.354,0,0,0,371.547,255.221Z" fill="#6c5b7b"/><path d="M374.657,255.221h.792a.354.354,0,0,0,.381-.382v-.792a.354.354,0,0,0-.381-.381h-.792a.354.354,0,0,0-.381.381v.792A.369.369,0,0,0,374.657,255.221Z" fill="#6c5b7b"/><path d="M377.8,255.221h.791a.355.355,0,0,0,.382-.382v-.792a.355.355,0,0,0-.382-.381H377.8a.355.355,0,0,0-.382.381v.792A.37.37,0,0,0,377.8,255.221Z" fill="#6c5b7b"/><path d="M380.933,255.221h.792a.354.354,0,0,0,.381-.382v-.792a.354.354,0,0,0-.381-.381h-.792a.354.354,0,0,0-.381.381v.792A.354.354,0,0,0,380.933,255.221Z" fill="#6c5b7b"/><path d="M371.547,258.33h.792a.355.355,0,0,0,.382-.382v-.791a.355.355,0,0,0-.382-.382h-.792a.355.355,0,0,0-.381.382v.791A.341.341,0,0,0,371.547,258.33Z" fill="#6c5b7b"/><rect width="1.555" height="1.554" rx="0.381" transform="translate(374.276 256.775)" fill="#6c5b7b"/><rect width="1.555" height="1.554" rx="0.381" transform="translate(377.414 256.775)" fill="#6c5b7b"/><path d="M380.933,258.33h.792a.354.354,0,0,0,.381-.382v-.791a.354.354,0,0,0-.381-.382h-.792a.354.354,0,0,0-.381.382v.791A.341.341,0,0,0,380.933,258.33Z" fill="#6c5b7b"/></g></svg>