<svg xmlns="http://www.w3.org/2000/svg" width="18.33" height="19.982" viewBox="0 0 18.33 19.982"><g transform="translate(-1286.076 -549.152)"><path d="M1286.917,550.8h16.616a.8.8,0,0,0,.842-.842.753.753,0,0,0-.811-.81h-16.647a.777.777,0,0,0-.81.841A.753.753,0,0,0,1286.917,550.8Z" fill="#6c5b7b"/><path d="M1303.565,567.451h-16.647a.841.841,0,1,0,0,1.683h16.615a.8.8,0,0,0,.842-.842A.762.762,0,0,0,1303.565,567.451Z" fill="#6c5b7b"/><path d="M1291.095,560.966l-2.245-1.839,2.245-1.839Zm-.188-5.736-3.553,2.993a1.336,1.336,0,0,0-.405.9,1.094,1.094,0,0,0,.405.842l3.585,3.086a.945.945,0,0,0,.654.249c.156,0,.343,0,.406-.093a.964.964,0,0,0,.654-.9v-6.235a1.085,1.085,0,0,0-.654-1A1.038,1.038,0,0,0,1290.907,555.23Z" fill="#6c5b7b"/><path d="M1303.564,554.139h-8.323a.842.842,0,0,0,0,1.684h8.323a.8.8,0,0,0,.842-.842A.819.819,0,0,0,1303.564,554.139Z" fill="#6c5b7b"/><path d="M1303.564,558.285h-8.323a.842.842,0,0,0,0,1.684h8.323a.8.8,0,0,0,.842-.842A.819.819,0,0,0,1303.564,558.285Z" fill="#6c5b7b"/><path d="M1303.564,562.463h-8.323a.841.841,0,1,0,0,1.683h8.323a.841.841,0,1,0,0-1.683Z" fill="#6c5b7b"/></g></svg>