<svg xmlns="http://www.w3.org/2000/svg" xmlns:xlink="http://www.w3.org/1999/xlink" width="24" height="20" viewBox="0 0 24 20"><defs><clipPath id="a"><rect width="24" height="20" transform="translate(1061.222 63.223)" fill="none"/></clipPath></defs><g transform="translate(-1061.222 -63.223)" opacity="0.902" style="isolation:isolate"><g clip-path="url(#a)"><g clip-path="url(#a)"><path d="M1063.21,68.444v-3H1083.2v3Zm20.025,12H1063.21V70.431H1083.2V80.444Zm.487-17.025h-21a1.48,1.48,0,0,0-1.5,1.5V80.931a1.556,1.556,0,0,0,1.5,1.5h21a1.555,1.555,0,0,0,1.5-1.5V64.956A1.562,1.562,0,0,0,1083.722,63.419Z" fill="#b5b5b5"/><path d="M1066.735,74.444h1.012a.454.454,0,0,0,.488-.488V72.944a.454.454,0,0,0-.488-.488h-1.012a.454.454,0,0,0-.488.488v1.012A.453.453,0,0,0,1066.735,74.444Z" fill="#b5b5b5"/><path d="M1070.709,74.444h1.013a.454.454,0,0,0,.488-.488V72.944a.454.454,0,0,0-.488-.488h-1.013a.453.453,0,0,0-.487.488v1.012A.473.473,0,0,0,1070.709,74.444Z" fill="#b5b5b5"/><path d="M1074.722,74.444h1.012a.453.453,0,0,0,.488-.488V72.944a.453.453,0,0,0-.488-.488h-1.012a.454.454,0,0,0-.488.488v1.012A.473.473,0,0,0,1074.722,74.444Z" fill="#b5b5b5"/><path d="M1078.735,74.444h1.012a.454.454,0,0,0,.488-.488V72.944a.454.454,0,0,0-.488-.488h-1.012a.454.454,0,0,0-.488.488v1.012A.453.453,0,0,0,1078.735,74.444Z" fill="#b5b5b5"/><path d="M1066.735,78.419h1.012a.454.454,0,0,0,.488-.488V76.919a.454.454,0,0,0-.488-.488h-1.012a.454.454,0,0,0-.488.488v1.012A.437.437,0,0,0,1066.735,78.419Z" fill="#b5b5b5"/><path d="M.487,0H1.5a.488.488,0,0,1,.488.488V1.5a.487.487,0,0,1-.487.487H.487A.487.487,0,0,1,0,1.5V.487A.487.487,0,0,1,.487,0Z" transform="translate(1070.222 76.431)" fill="#b5b5b5"/><path d="M.487,0H1.5a.488.488,0,0,1,.488.488V1.5a.487.487,0,0,1-.487.487H.488A.488.488,0,0,1,0,1.5V.487A.487.487,0,0,1,.487,0Z" transform="translate(1074.234 76.431)" fill="#b5b5b5"/><path d="M1078.735,78.419h1.012a.454.454,0,0,0,.488-.488V76.919a.454.454,0,0,0-.488-.488h-1.012a.454.454,0,0,0-.488.488v1.012A.437.437,0,0,0,1078.735,78.419Z" fill="#b5b5b5"/></g></g></g></svg>