<svg xmlns="http://www.w3.org/2000/svg" width="19.444" height="23.054" viewBox="0 0 19.444 23.054"><path d="M1173.632,81.393l.179-.288a3.367,3.367,0,0,0,.4-1.331v-7.66a6.375,6.375,0,0,1,5.862-6.222,7.474,7.474,0,0,1,5.575,1.726,5.7,5.7,0,0,1,2.014,4.424V79.7a3.145,3.145,0,0,0,.468,1.619l.108.108h-14.6Zm16.9,0-.755-1.151a1.2,1.2,0,0,1-.18-.576v-7.66a7.67,7.67,0,0,0-2.7-5.755,8.187,8.187,0,0,0-5-2.3v-.755a.971.971,0,0,0-1.942,0v.755h-.108a8.376,8.376,0,0,0-7.553,8.165v7.48a.9.9,0,0,1-.144.612l-.719,1.223a1.131,1.131,0,0,0,0,1.33,1.172,1.172,0,0,0,1.043.576h7.481v.971a.953.953,0,1,0,1.906,0v-.971h7.48a1.35,1.35,0,0,0,1.151-.576A1.652,1.652,0,0,0,1190.535,81.393Z" transform="translate(-1171.222 -62.223)" fill="#b5b5b5"/></svg>