<svg xmlns="http://www.w3.org/2000/svg" width="19.039" height="22.818" viewBox="0 0 19.039 22.818"><g transform="translate(-1223.222 -62.223)"><path d="M1237.305,68.106a.925.925,0,1,0-.855,1.64,7.014,7.014,0,0,1,3.886,6.168,7.61,7.61,0,0,1-15.189,0,6.9,6.9,0,0,1,3.815-6.168.973.973,0,1,0-.927-1.711,9.237,9.237,0,1,0,14.226,7.986A9.011,9.011,0,0,0,1237.305,68.106Z" fill="#b5b5b5"/><path d="M1232.741,74.6a.917.917,0,0,0,.963-.963V63.186a.962.962,0,1,0-1.925,0V73.632A.917.917,0,0,0,1232.741,74.6Z" fill="#b5b5b5"/></g></svg>