<svg xmlns="http://www.w3.org/2000/svg" width="22.818" height="22.818" viewBox="0 0 22.818 22.818"><g transform="translate(-1115.222 -62.223)"><path d="M1128.77,66.5h-8.557a.714.714,0,0,0,0,1.427h8.557a.714.714,0,0,0,0-1.427Z" fill="#b5b5b5"/><path d="M1125.918,69.354h-5.7a.713.713,0,1,0,0,1.426h5.7a.713.713,0,1,0,0-1.426Z" fill="#b5b5b5"/><path d="M1132.335,73.632a1.427,1.427,0,0,1-1.426,1.426h-10.7a.713.713,0,0,0-.456.166l-3.109,2.591V65.075a1.428,1.428,0,0,1,1.426-1.426h12.835a1.427,1.427,0,0,1,1.426,1.426Zm-1.426-11.409h-12.835a2.855,2.855,0,0,0-2.852,2.852V79.337a.713.713,0,0,0,.411.646.722.722,0,0,0,.3.067.708.708,0,0,0,.456-.166l4.081-3.4h10.437a2.855,2.855,0,0,0,2.853-2.852V65.075A2.855,2.855,0,0,0,1130.909,62.223Z" fill="#b5b5b5"/><path d="M1135.187,67.928a.713.713,0,1,0,0,1.426,1.427,1.427,0,0,1,1.426,1.426V82.843l-2.407-1.925a.717.717,0,0,0-.445-.155h-9.983a1.428,1.428,0,0,1-1.426-1.426v-.713a.713.713,0,1,0-1.426,0v.713a2.855,2.855,0,0,0,2.852,2.852h9.732l3.37,2.7a.72.72,0,0,0,.756.085.715.715,0,0,0,.4-.643V70.78A2.856,2.856,0,0,0,1135.187,67.928Z" fill="#b5b5b5"/></g></svg>