<svg xmlns="http://www.w3.org/2000/svg" xmlns:xlink="http://www.w3.org/1999/xlink" width="55" height="55" viewBox="0 0 55 55"><defs><clipPath id="a"><path d="M331.241,286.2a27.538,27.538,0,1,1,.529,5.365A27.377,27.377,0,0,1,331.241,286.2Z" fill="none"/></clipPath><clipPath id="b"><rect width="1366" height="768" transform="translate(-169.759 129.697)" fill="none"/></clipPath><clipPath id="c"><rect width="55" height="55" transform="translate(331.241 258.697)" fill="none"/></clipPath><clipPath id="e"><rect width="21" height="14" transform="translate(348.241 279.697)" fill="none"/></clipPath></defs><g transform="translate(-331.241 -258.697)"><g clip-path="url(#a)"><g clip-path="url(#b)"><g style="isolation:isolate"><g clip-path="url(#c)"><g clip-path="url(#c)"><path d="M358.741,256.991v12.29L347.479,289.2H331.838v24.616l26.9,4.872,32.073-2.564s22.052-25.385,21.8-26.924-15.641-21.8-16.923-22.821-11.539-7.692-12.565-7.949-24.38-2.82-24.38-2.82Z" fill="#01a162"/></g></g></g></g></g><path d="M358.741,265.7q1.006,0,2.009.1t1.99.3q.988.2,1.952.489t1.894.677q.93.386,1.819.86t1.725,1.035q.837.559,1.616,1.2t1.491,1.351q.711.713,1.351,1.491t1.2,1.616q.559.837,1.034,1.725t.861,1.819q.385.93.677,1.894t.489,1.951q.2.988.3,1.99t.1,2.01q0,1.007-.1,2.009t-.3,1.99q-.2.988-.489,1.952t-.677,1.894q-.385.93-.861,1.818t-1.034,1.726q-.56.837-1.2,1.616t-1.351,1.491q-.713.711-1.491,1.351t-1.616,1.2q-.837.559-1.725,1.034t-1.819.86q-.93.386-1.894.678t-1.952.489q-.987.2-1.99.295t-2.009.1q-1.006,0-2.009-.1t-1.99-.295q-.988-.2-1.952-.489t-1.894-.678q-.93-.385-1.818-.86t-1.726-1.034q-.837-.56-1.616-1.2t-1.491-1.351q-.711-.713-1.351-1.491t-1.2-1.616q-.56-.837-1.034-1.726t-.86-1.818q-.385-.93-.678-1.894t-.489-1.952q-.2-.987-.3-1.99t-.1-2.009q0-1.008.1-2.01t.3-1.99q.2-.987.489-1.951t.678-1.894q.385-.93.86-1.819t1.034-1.725q.559-.839,1.2-1.616t1.351-1.491q.713-.712,1.491-1.351t1.616-1.2q.837-.56,1.726-1.035t1.818-.86q.93-.385,1.894-.677t1.952-.489q.987-.2,1.99-.3T358.741,265.7Z" fill="#ececec"/><g opacity="0.902" style="isolation:isolate"><g clip-path="url(#e)"><g clip-path="url(#e)"><path d="M355.836,281.336a2.474,2.474,0,1,1-2.474,2.474A2.443,2.443,0,0,1,355.836,281.336Zm0,6.587a4.113,4.113,0,1,0-4.114-4.113A4.073,4.073,0,0,0,355.836,287.923Z" fill="#7a6b88"/><path d="M355.836,288.758a8.929,8.929,0,0,0-6.339,2.721.767.767,0,0,0,0,1.144.792.792,0,0,0,1.144,0,7.5,7.5,0,0,1,5.2-2.226,7.678,7.678,0,0,1,5.2,2.226.9.9,0,0,0,.587.248.844.844,0,0,0,.588-.248.769.769,0,0,0,0-1.144A9.168,9.168,0,0,0,355.836,288.758Z" fill="#7a6b88"/><path d="M364.093,284.645a.835.835,0,1,1-.835.835A.779.779,0,0,1,364.093,284.645Zm0,3.278a2.474,2.474,0,1,0-2.474-2.474A2.443,2.443,0,0,0,364.093,287.923Z" fill="#7a6b88"/><path d="M368.793,290.644a6.925,6.925,0,0,0-6.525-1.639.814.814,0,1,0,.4,1.577,5.329,5.329,0,0,1,5.041,1.237.789.789,0,0,0,.587.248.845.845,0,0,0,.588-.248A.972.972,0,0,0,368.793,290.644Z" fill="#7a6b88"/></g></g></g></g></svg>