<svg xmlns="http://www.w3.org/2000/svg" xmlns:xlink="http://www.w3.org/1999/xlink" width="55.001" height="55.001" viewBox="0 0 55.001 55.001"><defs><clipPath id="a"><path d="M208.806,289.417a27.484,27.484,0,1,1,.816,5.328A27.482,27.482,0,0,1,208.806,289.417Z" fill="none"/></clipPath><clipPath id="b"><rect width="1366" height="768" transform="translate(-78.208 148.15) rotate(-3.083)" fill="none"/></clipPath><clipPath id="c"><rect width="55" height="55" transform="translate(207.327 261.956) rotate(-3.083)" fill="none"/></clipPath></defs><g transform="translate(-208.766 -260.437)"><path d="M234.787,260.477q1.35-.072,2.7-.013t2.687.252q1.336.192,2.649.514t2.586.771q1.275.45,2.5,1.021t2.386,1.261q1.161.69,2.251,1.489t2.094,1.7q1,.9,1.917,1.9t1.722,2.078q.81,1.082,1.51,2.237t1.283,2.374q.584,1.219,1.045,2.489t.8,2.578q.334,1.31.539,2.645t.278,2.684q.072,1.35.012,2.7t-.251,2.687q-.192,1.336-.514,2.649t-.772,2.586q-.448,1.275-1.021,2.5t-1.26,2.386q-.69,1.161-1.489,2.251t-1.7,2.094q-.9,1.005-1.9,1.917t-2.078,1.722q-1.08.81-2.236,1.51t-2.374,1.283q-1.22.584-2.489,1.045t-2.579.795q-1.308.334-2.644.539t-2.684.278q-1.35.072-2.7.012t-2.687-.251q-1.338-.192-2.649-.514t-2.587-.772q-1.273-.448-2.5-1.021t-2.386-1.26q-1.161-.69-2.251-1.489t-2.094-1.7q-1-.9-1.917-1.9t-1.722-2.078q-.81-1.08-1.51-2.236t-1.283-2.374q-.583-1.219-1.045-2.489t-.8-2.579q-.334-1.308-.539-2.644t-.277-2.684q-.072-1.35-.013-2.7t.252-2.687q.192-1.338.514-2.649t.771-2.587q.45-1.273,1.021-2.5t1.261-2.386q.69-1.161,1.489-2.251t1.7-2.094q.9-1.005,1.9-1.917t2.078-1.722q1.082-.81,2.237-1.51t2.374-1.283q1.219-.584,2.489-1.045t2.578-.8q1.31-.333,2.645-.539T234.787,260.477Z" fill="#f6f6f6"/><g clip-path="url(#a)"><g clip-path="url(#b)"><g style="isolation:isolate"><g clip-path="url(#c)"><g clip-path="url(#c)"><path d="M234.7,258.774l.661,12.272-10.174,20.495-15.619.842,1.324,24.58,27.126,3.418L269.9,316.1s20.654-26.534,20.315-28.057-16.791-20.922-18.126-21.878-11.936-7.06-12.974-7.261-24.5-1.5-24.5-1.5Z" fill="#f9af25"/></g></g></g></g></g><path d="M235.164,267.467q1-.054,2.012-.009t2,.187q1,.144,1.975.383t1.928.575q.951.336,1.863.761t1.778.94q.867.515,1.678,1.11t1.561,1.269q.75.673,1.43,1.416t1.283,1.549q.6.805,1.126,1.667t.957,1.77q.435.909.778,1.855t.593,1.922a20.081,20.081,0,0,1,.4,1.972q.153.994.207,2t.009,2.012q-.043,1.005-.187,2t-.384,1.974q-.24.979-.574,1.928t-.762,1.863q-.426.912-.94,1.778t-1.109,1.678q-.6.813-1.269,1.561t-1.416,1.43q-.742.68-1.549,1.283t-1.667,1.126q-.863.522-1.77.957t-1.855.778q-.947.344-1.923.593t-1.971.4q-.994.153-2,.207t-2.012.009q-1-.043-2-.187t-1.975-.384q-.978-.24-1.927-.574t-1.863-.762q-.912-.426-1.778-.94t-1.678-1.109q-.813-.6-1.562-1.269t-1.429-1.416q-.68-.742-1.283-1.549t-1.126-1.668q-.522-.861-.957-1.769T217,294.935q-.345-.947-.593-1.922a20.086,20.086,0,0,1-.4-1.972q-.153-.994-.207-2t-.009-2.012q.043-1.005.187-2t.383-1.975q.242-.978.575-1.927t.761-1.863q.428-.912.94-1.778t1.11-1.678q.6-.813,1.269-1.562t1.416-1.429q.743-.68,1.549-1.283t1.667-1.126q.862-.522,1.77-.957t1.855-.778q.946-.345,1.922-.593a20.081,20.081,0,0,1,1.972-.4Q234.158,267.521,235.164,267.467Z" fill="#ececec"/><path d="M241.658,293.166l-.365-6.775,2.545-.137.365,6.775Zm-7.634.412-.549-10.18,2.545-.137.549,10.18Zm13.551-.73-1.686.091-.378-7.031A1.471,1.471,0,0,0,244,284.554l-3.054.165a1.47,1.47,0,0,0-1.354,1.508l.378,7.03-1.717.093-.568-10.529a1.414,1.414,0,0,0-1.5-1.291l-3.054.164a1.415,1.415,0,0,0-1.357,1.445l.567,10.53-2.545.137-.869-16.129a.86.86,0,0,0-1.718.093l.9,16.8a1.1,1.1,0,0,0,1.073.963l3.213-.173,5.948-.32,1.686-.091,5.949-.32,1.686-.091a.82.82,0,0,0,.813-.9A.812.812,0,0,0,247.575,292.848Z" fill="#6c5b7b"/></g></svg>