<svg xmlns="http://www.w3.org/2000/svg" xmlns:xlink="http://www.w3.org/1999/xlink" width="21" height="14" viewBox="0 0 21 14"><defs><clipPath id="a"><rect width="21" height="14" transform="translate(348.241 279.697)" fill="none"/></clipPath></defs><g transform="translate(-348.241 -279.697)" opacity="0.902" style="isolation:isolate"><g clip-path="url(#a)"><g clip-path="url(#a)"><path d="M355.836,281.336a2.474,2.474,0,1,1-2.474,2.474A2.443,2.443,0,0,1,355.836,281.336Zm0,6.587a4.113,4.113,0,1,0-4.114-4.113A4.073,4.073,0,0,0,355.836,287.923Z" fill="#7a6b88"/><path d="M355.836,288.758a8.929,8.929,0,0,0-6.339,2.721.767.767,0,0,0,0,1.144.792.792,0,0,0,1.144,0,7.5,7.5,0,0,1,5.2-2.226,7.678,7.678,0,0,1,5.2,2.226.9.9,0,0,0,.587.248.844.844,0,0,0,.588-.248.769.769,0,0,0,0-1.144A9.168,9.168,0,0,0,355.836,288.758Z" fill="#7a6b88"/><path d="M364.093,284.645a.835.835,0,1,1-.835.835A.779.779,0,0,1,364.093,284.645Zm0,3.278a2.474,2.474,0,1,0-2.474-2.474A2.443,2.443,0,0,0,364.093,287.923Z" fill="#7a6b88"/><path d="M368.793,290.644a6.925,6.925,0,0,0-6.525-1.639.814.814,0,1,0,.4,1.577,5.329,5.329,0,0,1,5.041,1.237.789.789,0,0,0,.587.248.845.845,0,0,0,.588-.248A.972.972,0,0,0,368.793,290.644Z" fill="#7a6b88"/></g></g></g></svg>