<svg xmlns="http://www.w3.org/2000/svg" width="26.318" height="16" viewBox="0 0 26.318 16"><g transform="translate(-294.582 -83.136)"><path d="M309.582,96.136h-10a2,2,0,0,1-1.849-1.234,2.026,2.026,0,0,1-.151-.766v-6a2.022,2.022,0,0,1,.15-.763,2.005,2.005,0,0,1,1.85-1.237h10a2.008,2.008,0,0,1,1.414.586,2.02,2.02,0,0,1,.434.649,1.992,1.992,0,0,1,.152.765v6a2,2,0,0,1-.152.766,2.02,2.02,0,0,1-.434.649,2,2,0,0,1-1.414.585Zm-10-9a.971.971,0,0,0-.383.077,1,1,0,0,0-.324.216.973.973,0,0,0-.218.325,1,1,0,0,0-.075.382v6a1.01,1.01,0,0,0,.076.386.958.958,0,0,0,.216.32.984.984,0,0,0,.325.218.97.97,0,0,0,.383.076h10a.965.965,0,0,0,.382-.076.976.976,0,0,0,.325-.217.962.962,0,0,0,.217-.324.988.988,0,0,0,.076-.383v-6a.986.986,0,0,0-.076-.382.976.976,0,0,0-.217-.325,1,1,0,0,0-.324-.216.974.974,0,0,0-.383-.077Z" fill="#746482"/><path d="M311.582,99.136h-14a3,3,0,0,1-3-3v-10a3,3,0,0,1,3-3h14a3,3,0,0,1,3,3v10a3,3,0,0,1-3,3Zm-14-15a2.008,2.008,0,0,0-1.415.586,1.991,1.991,0,0,0-.585,1.414v10a2.02,2.02,0,0,0,.151.767,2,2,0,0,0,1.083,1.081,1.957,1.957,0,0,0,.766.152h14a1.989,1.989,0,0,0,.765-.152,1.965,1.965,0,0,0,.649-.433,2,2,0,0,0,.586-1.415v-10a1.97,1.97,0,0,0-.152-.765,2.02,2.02,0,0,0-.434-.649,1.95,1.95,0,0,0-.649-.433,1.99,1.99,0,0,0-.765-.153Z" fill="#6c5b7b"/><path d="M320.4,97.485a.5.5,0,0,1-.234-.059l-5.817-3.089a.5.5,0,0,1-.266-.441V88.373a.5.5,0,0,1,.287-.453l5.817-2.736a.507.507,0,0,1,.481.03.5.5,0,0,1,.232.422V96.985a.5.5,0,0,1-.5.5Zm-5.317-3.89,4.817,2.558V86.424l-4.817,2.266Z" fill="#6c5b7b"/><path d="M318.082,94.136a.5.5,0,0,1-.5-.5v-5a.5.5,0,0,1,1,0v5A.5.5,0,0,1,318.082,94.136Z" fill="#6c5b7b"/><rect width="5" height="6" transform="translate(300.582 88.136)" fill="#ff1a00"/></g></svg>